<svg width="240" height="40" viewBox="0 0 240 40" fill="none" xmlns="http://www.w3.org/2000/svg">
<g clip-path="url(#clip0_31275_30411)">
<path d="M134.298 8.96629C134.208 8.96629 134.119 8.89887 134.119 8.78651V6.69662C134.119 6.60673 134.186 6.51685 134.298 6.51685H140.433C140.86 6.51685 141.13 6.85393 141.13 7.191C141.13 7.191 141.152 7.55056 141.13 7.91011C141.017 12.0674 138.456 14.9888 134.343 14.9888C130.231 14.9888 127.152 11.6629 127.152 7.48314C127.152 3.30336 130.253 -0.112366 134.411 -0.112366C137.669 -0.112366 139.399 1.95505 139.512 2.02247C139.579 2.08988 139.579 2.20224 139.512 2.26966L137.961 3.91011C137.894 3.97752 137.781 3.97752 137.714 3.91011C137.624 3.82022 136.433 2.42696 134.433 2.42696C131.714 2.42696 129.849 4.71909 129.849 7.4382C129.849 10.1573 131.737 12.382 134.388 12.382C136.501 12.382 138.029 11.2584 138.388 9.41572C138.388 9.34831 138.411 9.32584 138.411 9.28089C138.411 9.07864 138.253 8.92134 138.051 8.92134L134.298 8.96629ZM146.231 14.8764C144.253 14.8764 142.748 13.4157 142.748 10.8315V4.76404C142.748 4.67415 142.815 4.58426 142.928 4.58426H145.197C145.287 4.58426 145.377 4.65168 145.377 4.76404V10.2022C145.377 11.7977 146.074 12.5618 147.377 12.5618C148.68 12.5618 149.467 11.7303 149.467 10.2022V4.74157C149.467 4.65168 149.534 4.56179 149.647 4.56179H151.916C152.006 4.56179 152.096 4.62921 152.096 4.74157V14.5168C152.096 14.6067 152.029 14.6966 151.916 14.6966H149.826C149.737 14.6966 149.647 14.6067 149.647 14.5168V12.7191C149.647 12.6292 149.579 12.5393 149.467 12.5393C149.354 12.5393 149.31 12.6067 149.287 12.6966C149.04 13.5506 148.253 14.8764 146.231 14.8764ZM70.523 4.3146C67.5792 4.3146 65.1972 6.69662 65.1972 9.64044C65.1972 12.5843 67.5792 14.9663 70.523 14.9663C73.4668 14.9663 75.8489 12.5843 75.8489 9.64044C75.8489 6.69662 73.4668 4.3146 70.523 4.3146ZM70.523 12.4719C68.9949 12.4719 67.759 11.191 67.759 9.61797C67.759 8.04494 68.9949 6.76404 70.523 6.76404C72.0511 6.76404 73.2871 8.04494 73.2871 9.61797C73.2871 11.191 72.0736 12.4719 70.523 12.4719ZM63.1298 6.83145C62.5006 6.83145 61.8489 7.14606 61.4893 7.88763C61.2421 8.40449 61.1522 9.12359 61.1522 10.0899V14.5168C61.1522 14.6067 61.0623 14.6966 60.9725 14.6966H58.7028C58.6129 14.6966 58.523 14.6067 58.523 14.5168V4.74157C58.523 4.65168 58.6129 4.56179 58.7028 4.56179H60.7927C60.8826 4.56179 60.9725 4.62921 60.9725 4.74157V6.53932C60.9725 6.62921 61.0623 6.71909 61.1522 6.71909C61.2421 6.71909 61.3095 6.65168 61.332 6.56179C61.5118 5.95505 61.7815 5.191 62.3657 4.71909C62.6803 4.44943 63.0848 4.33707 63.4668 4.33707C63.8039 4.33707 64.1634 4.42696 64.523 4.65168C64.568 4.67415 64.6129 4.74157 64.6129 4.80898V7.0337C64.6129 7.12359 64.523 7.21348 64.4331 7.21348C64.3882 7.21348 64.3657 7.191 64.3432 7.191C64.0286 7.01123 63.6466 6.83145 63.1298 6.83145ZM106.276 6.83145C105.647 6.83145 104.995 7.14606 104.635 7.88763C104.388 8.40449 104.298 9.12359 104.298 10.0899V14.5168C104.298 14.6067 104.231 14.6966 104.119 14.6966H101.849C101.759 14.6966 101.669 14.6067 101.669 14.5168V4.74157C101.669 4.65168 101.737 4.56179 101.849 4.56179H103.939C104.029 4.56179 104.119 4.62921 104.119 4.74157V6.53932C104.119 6.62921 104.186 6.71909 104.298 6.71909C104.411 6.71909 104.456 6.65168 104.478 6.56179C104.658 5.95505 104.928 5.191 105.512 4.71909C105.826 4.44943 106.231 4.33707 106.613 4.33707C106.95 4.33707 107.31 4.42696 107.669 4.65168C107.714 4.67415 107.737 4.74157 107.737 4.80898V7.0337C107.737 7.12359 107.669 7.21348 107.557 7.21348C107.512 7.21348 107.489 7.191 107.467 7.191C107.175 7.01123 106.793 6.83145 106.276 6.83145ZM158.928 6.83145C158.298 6.83145 157.647 7.14606 157.287 7.88763C157.04 8.40449 156.95 9.12359 156.95 10.0899V14.5168C156.95 14.6067 156.883 14.6966 156.77 14.6966H154.501C154.411 14.6966 154.321 14.6067 154.321 14.5168V4.74157C154.321 4.65168 154.388 4.56179 154.501 4.56179H156.59C156.68 4.56179 156.77 4.62921 156.77 4.74157V6.53932C156.77 6.62921 156.838 6.71909 156.95 6.71909C157.062 6.71909 157.107 6.65168 157.13 6.56179C157.31 5.95505 157.579 5.191 158.163 4.71909C158.478 4.44943 158.883 4.33707 159.265 4.33707C159.602 4.33707 159.961 4.42696 160.321 4.65168C160.366 4.67415 160.388 4.74157 160.388 4.80898V7.0337C160.388 7.12359 160.321 7.21348 160.208 7.21348C160.163 7.21348 160.141 7.191 160.119 7.191C159.826 7.01123 159.422 6.83145 158.928 6.83145ZM165.265 14.8764C163.287 14.8764 161.781 13.4157 161.781 10.8315V4.76404C161.781 4.67415 161.849 4.58426 161.961 4.58426H164.231C164.321 4.58426 164.411 4.65168 164.411 4.76404V10.2022C164.411 11.7977 165.107 12.5618 166.411 12.5618C167.714 12.5618 168.501 11.7303 168.501 10.2022V4.74157C168.501 4.65168 168.568 4.56179 168.68 4.56179H170.95C171.04 4.56179 171.13 4.62921 171.13 4.74157V14.5168C171.13 14.6067 171.062 14.6966 170.95 14.6966H168.86C168.77 14.6966 168.68 14.6067 168.68 14.5168V12.7191C168.68 12.6292 168.613 12.5393 168.501 12.5393C168.388 12.5393 168.343 12.6067 168.321 12.6966C168.074 13.5506 167.31 14.8764 165.265 14.8764ZM125.624 4.56179H123.242C123.175 4.56179 123.107 4.60674 123.085 4.67415L121.647 8.74157C121.399 9.46067 120.972 10.6742 120.748 11.5506C120.725 11.618 120.658 11.6854 120.568 11.6854C120.501 11.6854 120.411 11.6404 120.388 11.5506C120.141 10.6517 119.714 9.46067 119.444 8.71909L117.961 4.65168C117.939 4.58426 117.871 4.53932 117.804 4.53932H115.422C115.332 4.53932 115.242 4.60674 115.242 4.71909C115.242 4.74157 115.242 4.76404 115.265 4.78651L119.197 14.6742L117.669 18.5168C117.669 18.5393 117.647 18.5618 117.647 18.5843C117.647 18.6742 117.714 18.764 117.826 18.764H120.119C120.186 18.764 120.253 18.7191 120.276 18.6517L125.781 4.78651V4.71909C125.804 4.65168 125.737 4.56179 125.624 4.56179ZM51.7365 0.134825H47.2197C46.8376 0.134825 46.523 0.449432 46.523 0.853926V14.5393C46.523 14.6292 46.6129 14.7191 46.7028 14.7191H48.9725C49.0623 14.7191 49.1522 14.6292 49.1522 14.5393V11.1236C49.1522 10.9213 49.3095 10.764 49.5118 10.764H51.7365C54.7702 10.764 57.1522 8.38202 57.1522 5.4382C57.1522 2.49438 54.7702 0.112353 51.7365 0.134825ZM51.5118 8.38202H49.4893C49.2871 8.38202 49.1298 8.22471 49.1298 8.02247V2.8764C49.1298 2.67415 49.2871 2.51685 49.4893 2.51685H51.5118C53.2197 2.51685 54.5455 3.82022 54.5455 5.46067C54.5455 7.10112 53.2197 8.38202 51.5118 8.38202ZM111.781 6.98876C111.781 6.89887 111.849 6.80898 111.961 6.80898H114.051C114.141 6.80898 114.231 6.74157 114.231 6.62921V4.74157C114.231 4.65168 114.163 4.56179 114.051 4.56179H111.714C111.624 4.56179 111.534 4.49438 111.534 4.38202V2.04494C111.534 1.95505 111.467 1.86516 111.354 1.86516H109.332C109.242 1.86516 109.152 1.93258 109.152 2.04494V11.6404C109.152 14.1124 110.343 14.9663 111.916 14.9663C112.905 14.9663 113.512 14.6517 113.759 14.5393C113.826 14.4944 113.871 14.4494 113.871 14.3595V12.8315C113.871 12.7191 113.759 12.6067 113.602 12.6742C113.287 12.7865 113.017 12.8764 112.68 12.8764C112.208 12.8764 111.759 12.6517 111.759 11.7977L111.781 6.98876ZM83.5567 14.9213C86.1635 14.9213 88.2983 12.6517 88.2983 9.64044C88.2983 6.62921 86.1635 4.35954 83.5567 4.35954C81.3545 4.35954 80.4556 5.84269 80.2534 6.26966C80.2084 6.35954 80.141 6.38202 80.0961 6.38202C80.0062 6.38202 79.9163 6.3146 79.9163 6.20224V4.76404C79.9163 4.67415 79.8264 4.58426 79.7365 4.58426H77.6466C77.5567 4.58426 77.4668 4.67415 77.4668 4.76404V18.6292C77.4668 18.7191 77.5567 18.809 77.6466 18.809H79.9163C80.0062 18.809 80.0961 18.7191 80.0961 18.6292V17.955C80.0961 14.6067 79.9163 13.2584 79.9163 13.1011C79.9163 13.0112 80.0062 12.9213 80.0961 12.9213C80.1859 12.9213 80.2534 12.9888 80.2534 13.0112C80.6579 13.8427 81.714 14.9213 83.5567 14.9213ZM82.905 12.4719C81.377 12.4719 80.141 11.191 80.141 9.61797C80.141 8.04494 81.377 6.76404 82.905 6.76404C84.4331 6.76404 85.6691 8.04494 85.6691 9.61797C85.6691 11.191 84.4331 12.4719 82.905 12.4719ZM94.8601 4.3146C91.9163 4.3146 89.759 6.69662 89.759 9.64044C89.759 12.5843 92.0062 14.9663 95.0623 14.9663C96.7253 14.9663 97.9837 14.382 98.8376 13.7079C98.905 13.6404 98.9275 13.5506 98.8826 13.4607L97.9388 12.1573C97.8938 12.0674 97.759 12.0674 97.6916 12.1124C97.2646 12.382 96.6579 12.8764 95.2871 12.8764C94.1185 12.8764 93.0848 12.2022 92.5904 11.1236C92.5455 11.0112 92.4781 10.8764 92.4781 10.809C92.4781 10.7191 92.568 10.6292 92.6579 10.6292H99.1747C99.4668 10.6292 99.8713 10.427 99.8938 9.93258C100.006 6.78651 98.2534 4.3146 94.8601 4.3146ZM97.1073 8.80898H92.5455C92.4556 8.80898 92.3657 8.74157 92.3657 8.62921C92.3657 8.58426 92.4107 8.42696 92.4556 8.3146C92.8151 7.16853 93.759 6.49438 95.0174 6.49438C96.0736 6.49438 96.8601 7.01123 97.2646 7.82022C97.377 8.04494 97.4893 8.33707 97.4893 8.44943C97.4444 8.65168 97.2871 8.80898 97.1073 8.80898ZM69.8713 22.3146C69.8713 21.854 70.2422 21.4831 70.7028 21.4831C71.1634 21.4831 71.5343 21.854 71.5343 22.3146C71.5343 22.7752 71.1634 23.1461 70.7028 23.1461C70.2422 23.1461 69.8713 22.7752 69.8713 22.3146ZM71.4444 26C71.4444 25.9101 71.3545 25.8202 71.2646 25.8202H70.1185C70.0286 25.8202 69.9388 25.9101 69.9388 26V35.5955C69.9388 35.6854 70.0062 35.7753 70.1185 35.7753H71.2646C71.3545 35.7753 71.4444 35.6854 71.4444 35.5955V26ZM64.4781 30.0674C63.332 29.9101 61.6466 29.7528 61.6466 28.5168C61.6466 27.5955 62.7702 26.9213 64.0736 26.9213C65.1747 26.9213 66.141 27.3258 66.7477 27.7753C66.8152 27.8202 66.95 27.7977 66.9724 27.7303L67.5118 26.8314C67.5567 26.764 67.5567 26.6741 67.4893 26.6067C66.6579 25.8876 65.3095 25.5281 64.0736 25.5281C61.4893 25.5281 60.1635 27.0786 60.1635 28.5618C60.1635 30.2921 61.714 31.0337 63.5567 31.3483C64.8826 31.573 66.5904 31.8202 66.5904 33.0337C66.5904 34.0225 65.3545 34.6517 63.9163 34.6517C62.4331 34.6517 61.3994 34 60.8826 33.6629C60.7927 33.5955 60.7028 33.618 60.6354 33.6854L60.0511 34.5618C60.0062 34.6292 60.0286 34.7191 60.0961 34.764C60.7477 35.3483 62.1635 36.0225 63.9387 36.0225C66.6129 36.0225 68.096 34.5393 68.096 32.9213C68.096 31.0562 66.3882 30.3371 64.4781 30.0674ZM83.6241 25.8427H82.5455C82.4556 25.8427 82.3657 25.9326 82.3657 26.0225V27.5281C82.3657 27.618 82.2983 27.6629 82.2309 27.6629C82.1635 27.6629 82.141 27.618 82.0961 27.573C81.4893 26.5843 80.2309 25.5955 78.2983 25.5955C75.6916 25.5955 73.3545 27.8652 73.3545 30.809C73.3545 33.7528 75.714 36.0225 78.2983 36.0225C80.2309 36.0225 81.4893 35.0337 82.0961 34.0449C82.1185 34 82.1635 33.955 82.2309 33.955C82.2983 33.955 82.3657 34 82.3657 34.0899V35.5955C82.3657 35.6854 82.4556 35.7753 82.5455 35.7753H83.6241C83.714 35.7753 83.8039 35.6854 83.8039 35.5955V26C83.8039 25.9101 83.7365 25.8202 83.6241 25.8427ZM78.6129 34.5393C76.568 34.5393 74.905 32.8764 74.905 30.809C74.905 28.7416 76.568 27.0786 78.6129 27.0786C80.6579 27.0786 82.3208 28.7416 82.3208 30.809C82.3208 32.8764 80.6579 34.5393 78.6129 34.5393ZM58.95 35.5505L53.3994 21.5955C53.377 21.5281 53.3095 21.4831 53.2421 21.4831H51.8713C51.8039 21.4831 51.7365 21.5281 51.714 21.5955L46.1635 35.5505V35.618C46.1635 35.7079 46.2534 35.7977 46.3432 35.7977H47.5792C47.6466 35.7977 47.714 35.7528 47.7365 35.6854L48.9725 32.6067C49.0174 32.4719 49.1522 32.382 49.2871 32.382H55.8713C56.0062 32.382 56.141 32.4719 56.1859 32.6067L57.4219 35.6854C57.4444 35.7528 57.5118 35.7977 57.5792 35.7977H58.8152C58.905 35.7977 58.9949 35.7079 58.9949 35.618C58.9725 35.5955 58.9725 35.573 58.95 35.5505ZM54.9949 30.8764H50.1635C49.9612 30.8764 49.8264 30.7191 49.8264 30.5168C49.8264 30.4719 49.8264 30.427 49.8489 30.382L51.5792 26.0225C51.9612 25.0562 52.3882 23.6629 52.4331 23.5281C52.4556 23.4382 52.523 23.3932 52.6129 23.3932C52.7028 23.3932 52.7702 23.4382 52.7927 23.5281C52.8152 23.6854 53.2421 25.0562 53.6241 26.0225L55.3545 30.382C55.3769 30.427 55.377 30.4719 55.377 30.5168C55.332 30.7191 55.1747 30.8764 54.9949 30.8764ZM235.512 30.0899C234.366 29.9326 232.68 29.7753 232.68 28.5393C232.68 27.618 233.804 26.9438 235.107 26.9438C236.208 26.9438 237.175 27.3483 237.781 27.7977C237.849 27.8427 237.961 27.8202 238.029 27.7528L238.568 26.8539C238.613 26.7865 238.613 26.6966 238.523 26.6292C237.692 25.9101 236.343 25.5506 235.107 25.5506C232.523 25.5506 231.197 27.1011 231.197 28.5843C231.197 30.3146 232.748 31.0562 234.59 31.3708C235.916 31.5955 237.624 31.8427 237.624 33.0562C237.624 34.0449 236.388 34.6741 234.95 34.6741C233.467 34.6741 232.433 34.0225 231.939 33.6854C231.849 33.618 231.759 33.6404 231.692 33.7079L231.085 34.5843C231.04 34.6517 231.062 34.7416 231.13 34.7865C231.759 35.3708 233.197 36.0449 234.972 36.0449C237.647 36.0449 239.13 34.5618 239.13 32.9438C239.107 31.0786 237.422 30.3595 235.512 30.0899ZM229.017 21.5056H227.871C227.781 21.5056 227.692 21.5955 227.692 21.6854V22.6966L227.759 27.4831C227.759 27.573 227.692 27.618 227.624 27.618C227.579 27.618 227.534 27.5955 227.489 27.5281C226.928 26.6067 225.692 25.618 223.647 25.618C221.085 25.618 218.748 27.8876 218.748 30.8314C218.748 33.7753 221.085 36.0449 223.692 36.0449C225.624 36.0449 226.883 35.0562 227.489 34.0674C227.512 34.0225 227.557 33.9775 227.624 33.9775C227.692 33.9775 227.759 34.0225 227.759 34.1124V35.618C227.759 35.7079 227.826 35.7977 227.939 35.7977H229.017C229.107 35.7977 229.197 35.7079 229.197 35.618V21.6629C229.197 21.573 229.13 21.5056 229.017 21.5056ZM224.006 34.5618C221.961 34.5618 220.298 32.8989 220.298 30.8314C220.298 28.764 221.961 27.1011 224.006 27.1011C226.051 27.1011 227.714 28.764 227.714 30.8314C227.714 32.8989 226.051 34.5618 224.006 34.5618ZM214.748 27.4831C214.748 27.573 214.815 27.618 214.883 27.618C214.95 27.618 214.995 27.5955 215.017 27.5281C215.22 26.9213 215.737 25.6629 217.31 25.6629C217.624 25.6629 218.051 25.7528 218.411 25.9775C218.456 26 218.478 26.0674 218.478 26.1123V27.3708C218.478 27.4607 218.411 27.5506 218.298 27.5506C218.253 27.5506 218.231 27.5281 218.208 27.5281C217.916 27.3483 217.512 27.1685 216.928 27.1685C216.276 27.1685 215.602 27.573 215.22 28.3595C214.972 28.8764 214.838 29.618 214.838 30.5168V35.6629C214.838 35.7528 214.77 35.8427 214.658 35.8427H213.512C213.422 35.8427 213.332 35.7528 213.332 35.6629V26.0674C213.332 25.9775 213.399 25.8876 213.512 25.8876H214.59C214.68 25.8876 214.77 25.9775 214.77 26.0674L214.748 27.4831ZM210.86 25.8427H209.781C209.692 25.8427 209.602 25.9326 209.602 26.0225V27.5281C209.602 27.618 209.534 27.6629 209.467 27.6629C209.399 27.6629 209.377 27.618 209.332 27.573C208.725 26.5843 207.467 25.5955 205.534 25.5955C202.928 25.5955 200.59 27.8652 200.59 30.809C200.59 33.7528 202.95 36.0225 205.534 36.0225C207.467 36.0225 208.725 35.0337 209.332 34.0449C209.355 34 209.399 33.955 209.467 33.955C209.534 33.955 209.602 34 209.602 34.0899V35.5955C209.602 35.6854 209.669 35.7753 209.781 35.7753H210.86C210.95 35.7753 211.04 35.6854 211.04 35.5955V26C211.04 25.9326 210.972 25.8427 210.86 25.8427ZM205.849 34.5618C203.804 34.5618 202.141 32.8989 202.141 30.8314C202.141 28.764 203.804 27.1011 205.849 27.1011C207.894 27.1011 209.557 28.764 209.557 30.8314C209.557 32.8989 207.894 34.5618 205.849 34.5618ZM191.781 27.9775C191.692 27.9775 191.647 28.0225 191.602 28.1123L188.86 35.7079C188.838 35.7753 188.77 35.8202 188.703 35.8202H187.287C187.22 35.8202 187.152 35.7753 187.13 35.7079L183.422 26.0899V26.0225C183.422 25.9326 183.489 25.8427 183.602 25.8427H184.838C184.905 25.8427 184.972 25.8876 184.995 25.955L187.804 33.7303C187.826 33.7977 187.894 33.8652 187.984 33.8652C188.074 33.8652 188.141 33.7977 188.163 33.7303C188.231 33.5281 190.995 25.9775 190.995 25.9775C191.04 25.8876 191.085 25.8652 191.152 25.8652H192.456C192.523 25.8652 192.59 25.9101 192.613 25.9775L195.444 33.7303C195.467 33.8202 195.534 33.8652 195.624 33.8652C195.714 33.8652 195.759 33.8202 195.804 33.7303C195.894 33.4607 198.613 25.955 198.613 25.955C198.635 25.8876 198.703 25.8427 198.77 25.8427H200.006C200.096 25.8427 200.186 25.9326 200.186 26.0225V26.0899L196.456 35.6854C196.433 35.7528 196.366 35.7977 196.298 35.7977H194.883C194.815 35.7977 194.748 35.7528 194.725 35.6854L191.984 28.0899C191.916 28.0225 191.871 27.9775 191.781 27.9775ZM184.501 35.573L178.95 21.618C178.928 21.5506 178.86 21.5056 178.793 21.5056H177.422C177.354 21.5056 177.287 21.5506 177.265 21.618L171.736 35.573V35.6404C171.736 35.7303 171.804 35.8202 171.916 35.8202H173.152C173.22 35.8202 173.287 35.7753 173.31 35.7079L174.545 32.6292C174.59 32.4944 174.725 32.4045 174.86 32.4045H181.399C181.557 32.4045 181.669 32.4944 181.714 32.6292L182.95 35.7079C182.972 35.7753 183.04 35.8202 183.107 35.8202H184.343C184.433 35.8202 184.523 35.7303 184.523 35.6404C184.523 35.618 184.523 35.5955 184.501 35.573ZM180.546 30.8989H175.714C175.534 30.8989 175.377 30.7416 175.377 30.5393C175.377 30.4944 175.377 30.4494 175.399 30.4045L177.13 26.0449C177.512 25.0786 177.939 23.6854 177.984 23.5506C178.006 23.4607 178.074 23.4157 178.163 23.4157C178.253 23.4157 178.321 23.4607 178.343 23.5506C178.366 23.7079 178.793 25.0786 179.175 26.0449L180.905 30.4045C180.928 30.4494 180.928 30.4944 180.928 30.5393C180.883 30.7416 180.725 30.8989 180.546 30.8989ZM114.613 25.5955C111.737 25.5955 109.399 27.9326 109.399 30.809C109.399 33.6854 111.737 36.0225 114.613 36.0225C117.489 36.0225 119.826 33.6854 119.826 30.809C119.826 27.9326 117.489 25.5955 114.613 25.5955ZM114.613 34.5618C112.568 34.5618 110.905 32.8989 110.905 30.8314C110.905 28.764 112.568 27.1011 114.613 27.1011C116.658 27.1011 118.321 28.764 118.321 30.8314C118.321 32.8989 116.658 34.5618 114.613 34.5618ZM138.568 25.618C135.692 25.618 133.557 27.955 133.557 30.8314C133.557 33.7079 135.759 36.0449 138.748 36.0449C140.366 36.0449 141.602 35.4831 142.433 34.809C142.501 34.7416 142.523 34.6517 142.478 34.5618L141.894 33.7303C141.849 33.6404 141.737 33.6404 141.647 33.6854C141.242 33.955 140.253 34.6067 138.838 34.6067C136.074 34.6067 135.197 32.3146 135.197 31.7079C135.197 31.618 135.265 31.5281 135.377 31.5281H142.748C143.107 31.5281 143.444 31.2809 143.467 30.8539C143.602 28.1798 141.961 25.618 138.568 25.618ZM141.602 30.2472H135.332C135.242 30.2472 135.152 30.1573 135.152 30.0674C135.152 29.1236 136.186 27.0112 138.523 27.0112C141.265 27.0112 141.939 29.2135 141.939 29.9101C141.939 30.0899 141.781 30.2472 141.602 30.2472ZM96.7477 21.5056H92.2309C91.8489 21.5056 91.5343 21.8202 91.5343 22.2022V35.6404C91.5343 35.7303 91.6241 35.8202 91.714 35.8202H92.8601C92.95 35.8202 93.0399 35.7303 93.0399 35.6404V32.2921C93.0399 32.0899 93.1972 31.9326 93.3769 31.9326H96.7477C99.6241 31.9326 101.961 29.5955 101.961 26.7191C101.961 23.8427 99.6241 21.5056 96.7477 21.5056ZM96.7477 30.4494H93.3769C93.1747 30.4494 93.0399 30.2921 93.0399 30.0899V23.3258C93.0399 23.1236 93.1972 22.9663 93.3769 22.9663H96.7477C98.8152 22.9663 100.478 24.6292 100.478 26.6966C100.478 28.764 98.7927 30.4494 96.7477 30.4494ZM105.377 27.4831C105.377 27.573 105.444 27.618 105.512 27.618C105.579 27.618 105.624 27.5955 105.647 27.5281C105.849 26.9213 106.366 25.6629 107.939 25.6629C108.276 25.6629 108.68 25.7528 109.04 25.9775C109.085 26 109.107 26.0674 109.107 26.1123V27.3708C109.107 27.4607 109.04 27.5506 108.928 27.5506C108.883 27.5506 108.86 27.5281 108.838 27.5281C108.546 27.3483 108.141 27.1685 107.557 27.1685C106.905 27.1685 106.231 27.573 105.849 28.3595C105.602 28.8764 105.467 29.618 105.467 30.5168V35.6629C105.467 35.7528 105.399 35.8427 105.287 35.8427H104.141C104.051 35.8427 103.961 35.7528 103.961 35.6629V26.0674C103.961 25.9775 104.029 25.8876 104.141 25.8876H105.22C105.31 25.8876 105.399 25.9775 105.399 26.0674L105.377 27.4831ZM122.972 26.0225C122.972 25.9326 122.905 25.8427 122.793 25.8427H121.714C121.624 25.8427 121.534 25.9326 121.534 26.0225V39.6404C121.534 39.7303 121.602 39.8202 121.714 39.8202H122.86C122.95 39.8202 123.04 39.7303 123.04 39.6404V38.9663L122.972 34.1798C122.972 34.0899 123.04 34.0449 123.107 34.0449C123.152 34.0449 123.197 34.0674 123.242 34.1348C123.804 35.0562 125.04 36.0449 127.085 36.0449C129.647 36.0449 131.984 33.7753 131.984 30.8314C131.984 27.8876 129.624 25.618 127.04 25.618C125.107 25.618 123.849 26.6067 123.242 27.5955C123.22 27.6404 123.175 27.6854 123.107 27.6854C123.04 27.6854 122.972 27.6404 122.972 27.5506V26.0225ZM126.748 34.5618C124.703 34.5618 123.04 32.8989 123.04 30.8314C123.04 28.764 124.703 27.1011 126.748 27.1011C128.793 27.1011 130.456 28.764 130.456 30.8314C130.456 32.8989 128.793 34.5618 126.748 34.5618ZM146.748 27.4831C146.748 27.573 146.815 27.618 146.883 27.618C146.95 27.618 146.995 27.5955 147.017 27.5281C147.22 26.9213 147.737 25.6629 149.31 25.6629C149.647 25.6629 150.051 25.7528 150.411 25.9775C150.456 26 150.478 26.0674 150.478 26.1123V27.3708C150.478 27.4607 150.411 27.5506 150.298 27.5506C150.253 27.5506 150.231 27.5281 150.208 27.5281C149.916 27.3483 149.512 27.1685 148.928 27.1685C148.276 27.1685 147.602 27.573 147.22 28.3595C146.972 28.8764 146.838 29.618 146.838 30.5168V35.6629C146.838 35.7528 146.77 35.8427 146.658 35.8427H145.512C145.422 35.8427 145.332 35.7528 145.332 35.6629V26.0674C145.332 25.9775 145.399 25.8876 145.512 25.8876H146.59C146.68 25.8876 146.77 25.9775 146.77 26.0674L146.748 27.4831ZM152.276 22.8989C152.276 22.809 152.343 22.7191 152.456 22.7191H153.579C153.669 22.7191 153.759 22.809 153.759 22.8989V25.6854C153.759 25.7753 153.826 25.8652 153.939 25.8652H156.77C156.86 25.8652 156.95 25.9326 156.95 26.0449V27.1461C156.95 27.2359 156.883 27.3258 156.77 27.3258H153.984C153.894 27.3258 153.804 27.4157 153.804 27.5056V32.9213C153.804 34.0674 154.276 34.6741 155.175 34.6741C155.894 34.6741 156.343 34.4494 156.703 34.3146C156.838 34.2696 156.95 34.3595 156.95 34.4719V35.4607C156.95 35.5506 156.905 35.5955 156.838 35.6404C156.59 35.7528 156.006 36.0674 155.04 36.0674C153.512 36.0674 152.321 35.2359 152.321 32.809L152.276 22.8989ZM163.107 34.4045L163.444 35.2809L162.703 37.4157L158.208 26.1123V26.0449C158.208 25.955 158.276 25.8652 158.388 25.8652H159.624C159.692 25.8652 159.759 25.9101 159.781 25.9775L161.871 31.2359C162.253 32.2022 162.68 33.573 162.703 33.7303C162.725 33.8202 162.793 33.8652 162.883 33.8652C162.972 33.8652 163.04 33.7977 163.062 33.7303C163.085 33.5955 163.512 32.2022 163.916 31.2359L166.006 25.955C166.029 25.8876 166.096 25.8427 166.163 25.8427H167.399C167.489 25.8427 167.579 25.9326 167.579 26.0225V26.0899L162.186 39.6854C162.163 39.7528 162.096 39.7977 162.029 39.7977H160.725C160.635 39.7977 160.546 39.7079 160.546 39.618V39.5506L162.703 34.382L163.107 34.4045ZM34.6354 24.2472L32.8152 22.427L34.6354 20.6067C36.0736 19.1685 36.0736 16.809 34.6354 15.3708L28.2309 8.96628V5.95505C28.2309 4.92134 27.4668 4.04493 26.4556 3.9101C25.8713 3.84269 25.2871 3.99999 24.8376 4.40448C24.6129 4.60673 24.4331 4.83145 24.3208 5.10111L20.4556 1.23594C19.0623 -0.157314 16.7927 -0.157314 15.3769 1.23594L1.21964 15.3932C-0.218559 16.8314 -0.218559 19.191 1.21964 20.6292L3.03987 22.4494L1.21964 24.2697C-0.218559 25.7079 -0.218559 28.0449 1.21964 29.5056L6.38818 34.6517C7.03987 35.3034 7.91627 35.7303 8.83762 35.7977C9.91627 35.8652 10.9275 35.4831 11.6916 34.7191L16.8151 29.5955C17.4444 28.9663 18.4781 28.9663 19.1073 29.5955L24.2084 34.6966C24.9725 35.4607 25.9837 35.8427 27.0399 35.7753C27.9612 35.7303 28.8376 35.3034 29.4893 34.6292L34.6354 29.4831C36.0736 28.0449 36.0736 25.7079 34.6354 24.2472ZM2.79268 19.0337C2.20841 18.4494 2.20841 17.5281 2.79268 16.9663L16.7702 2.98875C17.3994 2.35954 18.4331 2.35954 19.0623 2.98875L33.0399 16.9663C33.6241 17.5506 33.6241 18.4719 33.0399 19.0337L31.2196 20.8539L20.4781 10.1123C19.0848 8.71909 16.8152 8.71909 15.3994 10.1123L4.6129 20.8764L2.79268 19.0337ZM29.6466 22.427L27.8713 24.2022C27.6017 24.4719 27.2646 24.6517 26.8826 24.6741C26.4556 24.6966 26.0511 24.5393 25.759 24.2472L20.4556 18.9663C19.0623 17.573 16.7927 17.573 15.3769 18.9663L10.0736 24.2472C9.80391 24.5168 9.42189 24.6741 9.03987 24.6741C8.65785 24.6741 8.27582 24.5168 8.00616 24.2472L6.18594 22.427L16.7927 11.8202C17.4219 11.191 18.4556 11.191 19.0848 11.8202L29.6466 22.427ZM33.0399 27.9101L27.8489 33.1011C27.5792 33.3708 27.2421 33.5505 26.8601 33.573C26.4331 33.5955 26.0286 33.4382 25.7365 33.1461L20.4331 27.8652C19.0399 26.4719 16.7702 26.4719 15.3545 27.8652L10.0511 33.1461C9.75897 33.4382 9.35448 33.5955 8.92751 33.573C8.54549 33.5505 8.20841 33.3708 7.93875 33.1011L2.7702 27.9101C2.18594 27.3258 2.18594 26.4045 2.7702 25.8427L4.59043 24.0225L6.34324 25.7753C6.99492 26.427 7.87133 26.8539 8.79268 26.9213C9.87133 26.9888 10.8826 26.6067 11.6466 25.8427L16.7702 20.7191C17.3994 20.0899 18.4331 20.0899 19.0623 20.7191L24.1635 25.8427C24.9275 26.6067 25.9387 26.9888 26.9949 26.9213C27.9163 26.8764 28.7927 26.4494 29.4444 25.7753L31.1972 24.0225L33.0174 25.8427C33.6241 26.4045 33.6241 27.3258 33.0399 27.9101Z" fill="#2C2C2C"/>
</g>
<defs>
<clipPath id="clip0_31275_30411">
<rect width="239.101" height="40" fill="white" transform="translate(0.253357)"/>
</clipPath>
</defs>
</svg>
