<svg width="227" height="40" viewBox="0 0 227 40" fill="none" xmlns="http://www.w3.org/2000/svg">
<path d="M36.2456 14.884C36.6739 14.884 37.0212 14.5368 37.0212 14.1085C37.0212 13.6801 36.6739 13.3329 36.2456 13.3329C35.8172 13.3329 35.47 13.6801 35.47 14.1085C35.47 14.5368 35.8172 14.884 36.2456 14.884Z" fill="#2C2C2C"/>
<path d="M36.9387 17.5413C36.9387 17.4588 36.8726 17.3762 36.7736 17.3762H35.701C35.6185 17.3762 35.536 17.4423 35.536 17.5413V26.4852C35.536 26.5677 35.602 26.6502 35.701 26.6502H36.7736C36.8561 26.6502 36.9387 26.5842 36.9387 26.4852V17.5413ZM30.437 21.3366C29.3644 21.1881 27.8132 21.0396 27.8132 19.901C27.8132 19.0429 28.8528 18.4158 30.074 18.4158C31.1136 18.4158 32.0047 18.7789 32.5657 19.2079C32.6317 19.2574 32.7472 19.2409 32.7802 19.1749L33.2753 18.3333C33.3083 18.2673 33.3083 18.1848 33.2423 18.1353C32.4667 17.4753 31.2126 17.1287 30.0575 17.1287C27.6482 17.1287 26.4106 18.5644 26.4106 19.9505C26.4106 21.5677 27.8462 22.2442 29.5789 22.5413C30.8165 22.7558 32.4007 22.9868 32.4007 24.1089C32.4007 25.033 31.2621 25.6271 29.909 25.6271C28.5393 25.6271 27.5657 25.033 27.0872 24.703C27.0047 24.6535 26.9222 24.6535 26.8561 24.736L26.2951 25.5611C26.2621 25.6271 26.2621 25.7096 26.3281 25.7591C26.9222 26.3036 28.2588 26.9472 29.909 26.9472C32.4007 26.9472 33.7868 25.5611 33.7868 24.0429C33.8033 22.2607 32.2192 21.6007 30.437 21.3366ZM48.2918 17.3927H47.3017C47.2192 17.3927 47.1367 17.4588 47.1367 17.5578V18.9604C47.1367 19.0429 47.0707 19.0759 47.0047 19.0759C46.9552 19.0759 46.9057 19.0429 46.8892 18.9934C46.3281 18.0693 45.1565 17.1452 43.3413 17.1452C40.9156 17.1452 38.7373 19.2739 38.7373 22.0132C38.7373 24.7525 40.9321 26.8812 43.3413 26.8812C45.1565 26.8812 46.3116 25.9571 46.8892 25.033C46.9222 24.9835 46.9552 24.9505 47.0047 24.9505C47.0542 24.9505 47.1367 24.9835 47.1367 25.066V26.4687C47.1367 26.5512 47.2027 26.6337 47.3017 26.6337H48.2918C48.3743 26.6337 48.4568 26.5677 48.4568 26.4687V17.5248C48.4568 17.4588 48.3743 17.3927 48.2918 17.3927ZM43.6053 25.4951C41.6911 25.4951 40.1565 23.9439 40.1565 22.0132C40.1565 20.099 41.7076 18.5314 43.6053 18.5314C45.503 18.5314 47.0542 20.0825 47.0542 22.0132C47.0542 23.9439 45.5195 25.4951 43.6053 25.4951ZM25.2885 26.4356L20.1235 13.4323C20.107 13.3663 20.041 13.3333 19.975 13.3333H18.7043C18.6383 13.3333 18.5723 13.3828 18.5558 13.4323L13.3908 26.4356C13.3908 26.4522 13.3743 26.4687 13.3743 26.5017C13.3743 26.5842 13.4403 26.6667 13.5393 26.6667H14.6779C14.7439 26.6667 14.8099 26.6172 14.8264 26.5677L15.9651 23.6964C16.0146 23.5809 16.1301 23.4984 16.2621 23.4984H22.4007C22.5327 23.4984 22.6482 23.5809 22.6977 23.6964L23.8363 26.5677C23.8528 26.6337 23.9189 26.6667 23.9849 26.6667H25.1235C25.206 26.6667 25.2885 26.6007 25.2885 26.5017C25.305 26.4852 25.2885 26.4522 25.2885 26.4356ZM21.5921 22.0792H17.0872C16.9057 22.0792 16.7571 21.9307 16.7571 21.7492C16.7571 21.6997 16.7571 21.6667 16.7736 21.6337L18.3908 17.5743C18.7538 16.6667 19.1499 15.363 19.1829 15.2475C19.1994 15.1815 19.2654 15.1155 19.3479 15.1155C19.4304 15.1155 19.4964 15.165 19.5129 15.2475C19.5459 15.3795 19.942 16.6667 20.2885 17.5743L21.9057 21.6337C21.9222 21.6667 21.9222 21.7162 21.9222 21.7492C21.9057 21.9472 21.7571 22.0792 21.5921 22.0792ZM71.1796 17.1947C68.4898 17.1947 66.5096 19.3729 66.5096 22.0627C66.5096 24.7525 68.5558 26.9307 71.3611 26.9307C72.8628 26.9307 74.0344 26.4026 74.7934 25.7921C74.8595 25.7426 74.876 25.6436 74.8264 25.5776L74.2819 24.802C74.2324 24.736 74.1334 24.7195 74.0509 24.769C73.6713 25.0165 72.7637 25.6271 71.4271 25.6271C68.8529 25.6271 68.0278 23.4984 68.0278 22.9373C68.0278 22.8548 68.0938 22.7723 68.1928 22.7723H75.074C75.404 22.7723 75.7175 22.5248 75.734 22.1452C75.8661 19.5875 74.3314 17.1947 71.1796 17.1947ZM74.0014 21.5182H68.1598C68.0773 21.5182 67.9948 21.4522 67.9948 21.3531C67.9948 20.4786 68.9519 18.4984 71.1466 18.4984C73.6878 18.4984 74.3314 20.5446 74.3314 21.1881C74.3314 21.3861 74.1829 21.5182 74.0014 21.5182ZM62.9123 22.9538C62.8628 22.8713 62.8463 22.6403 62.8298 22.4753C64.3479 21.6502 65.371 20.0495 65.371 18.2013C65.371 15.5116 63.1928 13.3333 60.503 13.3333H56.2786C55.9156 13.3333 55.635 13.6304 55.635 13.9769V26.5017C55.635 26.5842 55.701 26.6667 55.8 26.6667H56.8727C56.9552 26.6667 57.0377 26.6007 57.0377 26.5017V23.3828C57.0377 23.2013 57.1862 23.0528 57.3677 23.0528H60.5195C60.7175 23.0528 60.9156 23.0363 61.1136 23.0198C61.1631 23.0693 61.2126 23.1188 61.2456 23.1848C61.7736 23.9934 62.2357 24.7195 62.7307 25.4951L63.4238 26.5842C63.4568 26.6337 63.5063 26.6667 63.5558 26.6667H64.9915C65.1235 26.6667 65.206 26.5182 65.1235 26.4191C64.3974 25.264 63.4238 23.7624 62.9123 22.9538ZM57.3512 21.6667C57.1697 21.6667 57.0212 21.5182 57.0212 21.3366V15.0495C57.0212 14.868 57.1697 14.7195 57.3512 14.7195H60.503C62.4172 14.7195 63.9849 16.2706 63.9849 18.2013C63.9849 20.1155 62.4337 21.6832 60.503 21.6832L57.3512 21.6667ZM89.2489 26.5017V13.3003C89.2489 13.2013 89.3149 13.1353 89.4139 13.1353H90.4535C90.5525 13.1353 90.6185 13.2013 90.6185 13.3003V26.5017C90.6185 26.6007 90.5525 26.6667 90.4535 26.6667H89.4139C89.3149 26.6667 89.2489 26.5842 89.2489 26.5017ZM86.7571 17.4092H85.767C85.6845 17.4092 85.602 17.4753 85.602 17.5743V18.9769C85.602 19.0594 85.536 19.0924 85.47 19.0924C85.4205 19.0924 85.371 19.0594 85.3545 19.0099C84.7934 18.0858 83.6218 17.1617 81.8232 17.1617C79.3974 17.1617 77.2192 19.2904 77.2192 22.0297C77.2192 24.769 79.4139 26.8977 81.8232 26.8977C83.6383 26.8977 84.7934 25.9736 85.3545 25.0495C85.3875 25 85.4205 24.967 85.47 24.967C85.5195 24.967 85.602 25 85.602 25.0825V26.4852C85.602 26.5677 85.668 26.6502 85.767 26.6502H86.7571C86.8396 26.6502 86.9222 26.5842 86.9222 26.4852V17.5413C86.9222 17.4753 86.8396 17.4092 86.7571 17.4092ZM82.0707 25.5281C80.1565 25.5281 78.6218 23.9769 78.6218 22.0462C78.6218 20.132 80.173 18.5644 82.0707 18.5644C83.9684 18.5644 85.5195 20.1155 85.5195 22.0462C85.5195 23.9604 83.9849 25.5281 82.0707 25.5281ZM111.427 21.3861C110.354 21.2376 108.803 21.0891 108.803 19.9505C108.803 19.0924 109.843 18.4654 111.064 18.4654C112.104 18.4654 112.995 18.8284 113.556 19.2574C113.622 19.3069 113.737 19.2904 113.77 19.2244L114.265 18.3828C114.298 18.3168 114.298 18.2343 114.232 18.1848C113.457 17.5248 112.203 17.1782 111.048 17.1782C108.638 17.1782 107.401 18.6139 107.401 20C107.401 21.6172 108.836 22.2937 110.569 22.5908C111.807 22.8053 113.391 23.0363 113.391 24.1584C113.391 25.0825 112.252 25.6766 110.899 25.6766C109.529 25.6766 108.556 25.0825 108.077 24.7525C107.995 24.703 107.912 24.703 107.846 24.7855L107.285 25.6106C107.252 25.6766 107.252 25.7591 107.318 25.8086C107.912 26.3531 109.249 26.9967 110.899 26.9967C113.391 26.9967 114.777 25.6106 114.777 24.0924C114.793 22.2937 113.209 21.6337 111.427 21.3861ZM142.417 17.1947C139.727 17.1947 137.747 19.3729 137.747 22.0627C137.747 24.7525 139.793 26.9307 142.599 26.9307C144.1 26.9307 145.272 26.4026 146.031 25.7921C146.097 25.7426 146.114 25.6436 146.064 25.5776L145.52 24.802C145.47 24.736 145.371 24.7195 145.288 24.769C144.909 25.0165 144.001 25.6271 142.665 25.6271C140.09 25.6271 139.265 23.4984 139.265 22.9373C139.265 22.8548 139.331 22.7723 139.43 22.7723H146.312C146.642 22.7723 146.955 22.5248 146.972 22.1452C147.104 19.5875 145.586 17.1947 142.417 17.1947ZM145.255 21.5182H139.414C139.331 21.5182 139.249 21.4522 139.249 21.3531C139.249 20.4786 140.206 18.4984 142.401 18.4984C144.942 18.4984 145.586 20.5446 145.586 21.1881C145.569 21.3861 145.437 21.5182 145.255 21.5182ZM130.668 17.4092H129.678C129.595 17.4092 129.513 17.4753 129.513 17.5743V18.9769C129.513 19.0594 129.447 19.0924 129.381 19.0924C129.331 19.0924 129.282 19.0594 129.265 19.0099C128.704 18.0858 127.533 17.1617 125.734 17.1617C123.308 17.1617 121.13 19.2904 121.13 22.0297C121.13 24.769 123.325 26.8977 125.734 26.8977C127.549 26.8977 128.704 25.9736 129.265 25.0495C129.298 25 129.331 24.967 129.381 24.967C129.43 24.967 129.513 25 129.513 25.0825V26.4852C129.513 26.5677 129.579 26.6502 129.678 26.6502H130.668C130.751 26.6502 130.833 26.5842 130.833 26.4852V17.5413C130.833 17.4753 130.767 17.4092 130.668 17.4092ZM125.998 25.5281C124.084 25.5281 122.549 23.9769 122.549 22.0462C122.549 20.132 124.1 18.5644 125.998 18.5644C127.912 18.5644 129.447 20.1155 129.447 22.0462C129.447 23.9604 127.896 25.5281 125.998 25.5281ZM106.13 25.264H99.5129C99.3314 25.264 99.1829 25.1155 99.1829 24.934V20.9736C99.1829 20.7921 99.3314 20.6436 99.5129 20.6436H104.925C105.008 20.6436 105.09 20.5776 105.09 20.4786V19.4059C105.09 19.3234 105.024 19.2409 104.925 19.2409H99.5129C99.3314 19.2409 99.1829 19.0924 99.1829 18.9109V15.0165C99.1829 14.835 99.3314 14.6865 99.5129 14.6865H106.13C106.213 14.6865 106.295 14.6205 106.295 14.5215V13.4489C106.295 13.3663 106.229 13.2838 106.13 13.2838H98.4568C98.0938 13.2838 97.8132 13.5809 97.8132 13.9274V25.9571C97.8132 26.3201 98.1103 26.6007 98.4568 26.6007H106.13C106.213 26.6007 106.295 26.5347 106.295 26.4356V25.363C106.295 25.3465 106.213 25.264 106.13 25.264ZM116.543 14.6535C116.543 14.571 116.609 14.4885 116.708 14.4885H117.747C117.83 14.4885 117.912 14.5545 117.912 14.6535V17.2607C117.912 17.3432 117.978 17.4257 118.077 17.4257H120.701C120.784 17.4257 120.866 17.4918 120.866 17.5908V18.6304C120.866 18.7129 120.8 18.7954 120.701 18.7954H118.094C118.011 18.7954 117.929 18.8614 117.929 18.9604V24.0264C117.929 25.099 118.374 25.6436 119.199 25.6436C119.859 25.6436 120.288 25.429 120.619 25.3135C120.751 25.264 120.85 25.3465 120.85 25.4621V26.3861C120.85 26.4687 120.817 26.5182 120.751 26.5512C120.52 26.6667 119.975 26.9307 119.067 26.9307C117.632 26.9307 116.526 26.1551 116.526 23.8944V14.6535H116.543ZM133.16 14.6535C133.16 14.571 133.226 14.4885 133.325 14.4885H134.364C134.447 14.4885 134.529 14.5545 134.529 14.6535V17.2607C134.529 17.3432 134.595 17.4257 134.694 17.4257H137.318C137.401 17.4257 137.483 17.4918 137.483 17.5908V18.6304C137.483 18.7129 137.417 18.7954 137.318 18.7954H134.711C134.628 18.7954 134.546 18.8614 134.546 18.9604V24.0264C134.546 25.099 134.991 25.6436 135.817 25.6436C136.477 25.6436 136.906 25.429 137.236 25.3135C137.368 25.264 137.467 25.3465 137.467 25.4621V26.3861C137.467 26.4687 137.434 26.5182 137.368 26.5512C137.137 26.6667 136.592 26.9307 135.685 26.9307C134.249 26.9307 133.143 26.1551 133.143 23.8944V14.6535H133.16ZM172.219 17.5743V26.4852C172.219 26.5677 172.153 26.6502 172.054 26.6502H171.081C170.965 26.6502 170.916 26.5842 170.916 26.3696L170.883 25.5776C170.883 25.4621 170.734 25.4125 170.652 25.5116C170.09 26.3036 169.15 26.8812 167.813 26.8812C165.8 26.8812 164.447 25.5611 164.447 23.1188V17.5908C164.447 17.5083 164.513 17.4257 164.612 17.4257H165.635C165.718 17.4257 165.8 17.4918 165.8 17.5908V22.9868C165.8 24.6205 166.675 25.6271 168.193 25.6271C169.727 25.6271 170.866 24.6205 170.866 22.9868V17.5908C170.866 17.5083 170.932 17.4257 171.031 17.4257H172.054C172.153 17.4092 172.219 17.4918 172.219 17.5743ZM157.269 26.9142C160.998 26.9142 162.681 24.835 162.681 22.9043C162.681 20.8581 161.147 19.637 157.995 19.1914L157.714 19.1584C156.163 18.9439 154.051 18.6634 154.051 16.9472C154.051 15.6601 155.553 14.637 157.483 14.637C158.787 14.637 160.074 15.033 161.048 15.7261C161.097 15.7591 161.147 15.7921 161.213 15.7756C161.312 15.7591 161.328 15.6766 161.328 15.6766L161.922 14.6865C161.922 14.6865 161.972 14.6205 161.955 14.5545C161.955 14.505 161.906 14.472 161.873 14.439C160.833 13.6139 159.166 13.0858 157.483 13.0858C154.15 13.0858 152.401 15.0495 152.401 16.9802C152.401 18.8779 153.853 20.033 156.823 20.5446L157.005 20.5776C158.803 20.8911 161.031 21.2706 161.031 22.9868C161.031 24.3564 159.447 25.3465 157.269 25.3465C155.833 25.3465 154.463 24.901 153.193 24.0264L153.16 24.0099C153.127 23.9934 153.028 23.9769 152.962 24.0429L152.945 24.0594L152.269 25.066C152.269 25.066 152.236 25.1155 152.236 25.165C152.236 25.231 152.285 25.264 152.302 25.2805C153.242 26.1221 155.107 26.9142 157.269 26.9142Z" fill="#2C2C2C"/>
<path d="M153.077 24.3235C153.159 24.3235 153.226 24.257 153.226 24.1749C153.226 24.0929 153.159 24.0264 153.077 24.0264C152.995 24.0264 152.929 24.0929 152.929 24.1749C152.929 24.257 152.995 24.3235 153.077 24.3235Z" fill="#2C2C2C"/>
<path d="M152.401 25.3465C152.483 25.3465 152.549 25.28 152.549 25.198C152.549 25.116 152.483 25.0495 152.401 25.0495C152.319 25.0495 152.252 25.116 152.252 25.198C152.252 25.28 152.319 25.3465 152.401 25.3465Z" fill="#2C2C2C"/>
<path d="M161.807 14.753C161.889 14.753 161.955 14.6865 161.955 14.6044C161.955 14.5224 161.889 14.4559 161.807 14.4559C161.725 14.4559 161.658 14.5224 161.658 14.6044C161.658 14.6865 161.725 14.753 161.807 14.753Z" fill="#2C2C2C"/>
<path d="M161.18 15.792C161.262 15.792 161.328 15.7255 161.328 15.6435C161.328 15.5615 161.262 15.495 161.18 15.495C161.098 15.495 161.031 15.5615 161.031 15.6435C161.031 15.7255 161.098 15.792 161.18 15.792Z" fill="#2C2C2C"/>
<path d="M174.546 26.5023V17.6905C174.546 17.5419 174.661 17.4264 174.81 17.4264H175.569C175.734 17.4264 175.85 17.5419 175.85 17.707L175.866 18.3505C175.866 18.466 176.031 18.5155 176.097 18.4165C176.576 17.7235 177.335 17.2119 178.506 17.2119C179.694 17.2119 180.619 17.74 181.114 18.7796C181.163 18.8786 181.295 18.8786 181.345 18.7961C181.84 17.905 182.681 17.2119 184.133 17.2119C186.031 17.2119 187.186 18.4495 187.186 20.8918V26.5188C187.186 26.6013 187.12 26.6839 187.021 26.6839H185.982C185.899 26.6839 185.817 26.6178 185.817 26.5188V21.0403C185.817 19.4231 185.157 18.4825 183.82 18.4825C182.467 18.4825 181.543 19.4396 181.543 21.0403V26.5188C181.543 26.6013 181.477 26.6839 181.378 26.6839H180.338C180.255 26.6839 180.173 26.6178 180.173 26.5188V21.0403C180.173 19.4231 179.414 18.4825 178.077 18.4825C176.708 18.4825 175.883 19.4396 175.883 21.0403V26.5188C175.883 26.6013 175.817 26.6839 175.718 26.6839H174.678C174.628 26.6674 174.546 26.5848 174.546 26.5023ZM189.513 26.5023V17.6905C189.513 17.5419 189.628 17.4264 189.777 17.4264H190.536C190.701 17.4264 190.817 17.5419 190.817 17.707L190.833 18.3505C190.833 18.466 190.998 18.5155 191.064 18.4165C191.543 17.7235 192.302 17.2119 193.473 17.2119C194.661 17.2119 195.586 17.74 196.081 18.7796C196.13 18.8786 196.262 18.8786 196.312 18.7961C196.807 17.905 197.648 17.2119 199.1 17.2119C200.998 17.2119 202.153 18.4495 202.153 20.8918V26.5188C202.153 26.6013 202.087 26.6839 201.988 26.6839H200.949C200.866 26.6839 200.784 26.6178 200.784 26.5188V21.0403C200.784 19.4231 200.123 18.4825 198.787 18.4825C197.434 18.4825 196.51 19.4396 196.51 21.0403V26.5188C196.51 26.6013 196.444 26.6839 196.345 26.6839H195.305C195.223 26.6839 195.14 26.6178 195.14 26.5188V21.0403C195.14 19.4231 194.381 18.4825 193.044 18.4825C191.675 18.4825 190.85 19.4396 190.85 21.0403V26.5188C190.85 26.6013 190.784 26.6839 190.685 26.6839H189.645C189.595 26.6674 189.513 26.5848 189.513 26.5023ZM208.358 14.6542C208.358 14.5716 208.424 14.4891 208.523 14.4891H209.562C209.645 14.4891 209.727 14.5551 209.727 14.6542V17.2614C209.727 17.3439 209.793 17.4264 209.892 17.4264H212.516C212.599 17.4264 212.681 17.4924 212.681 17.5914V18.631C212.681 18.7136 212.615 18.7961 212.516 18.7961H209.909C209.826 18.7961 209.744 18.8621 209.744 18.9611V24.0271C209.744 25.0997 210.189 25.6442 211.015 25.6442C211.675 25.6442 212.104 25.4297 212.434 25.3142C212.566 25.2647 212.665 25.3472 212.665 25.4627V26.3868C212.665 26.4693 212.632 26.5188 212.566 26.5518C212.335 26.6674 211.79 26.9314 210.883 26.9314C209.447 26.9314 208.341 26.1558 208.341 23.8951V14.6542H208.358Z" fill="#2C2C2C"/>
<path d="M205.255 14.9006C205.684 14.9006 206.031 14.5534 206.031 14.1251C206.031 13.6967 205.684 13.3495 205.255 13.3495C204.827 13.3495 204.48 13.6967 204.48 14.1251C204.48 14.5534 204.827 14.9006 205.255 14.9006Z" fill="#2C2C2C"/>
<path d="M205.949 17.5751C205.949 17.4925 205.883 17.41 205.784 17.41H204.711C204.628 17.41 204.546 17.476 204.546 17.5751V26.5189C204.546 26.6015 204.612 26.684 204.711 26.684H205.784C205.866 26.684 205.949 26.618 205.949 26.5189V17.5751Z" fill="#2C2C2C"/>
</svg>
