<svg width="125" height="56" viewBox="0 0 125 56" fill="none" xmlns="http://www.w3.org/2000/svg">
<g clip-path="url(#clip0_31275_30424)">
<path d="M3.6747 53.0617H4.33777V55.355H3.6747V53.0617ZM4.78672 53.0617H5.40463L6.2107 54.3306V53.0617H6.83425V55.355H6.2107L5.40914 54.0958V55.355H4.78672V53.0617Z" fill="#2C2C2C"/>
<path d="M7.24799 53.0617H7.86591L8.67197 54.3306V53.0617H9.29553V55.355H8.67197L7.87042 54.0958V55.355H7.24762V53.0617H7.24799Z" fill="#2C2C2C"/>
<path d="M9.62225 54.2113C9.62225 53.8365 9.71934 53.5452 9.91427 53.3367C10.1092 53.1282 10.3802 53.0236 10.7275 53.0236C11.0839 53.0236 11.3586 53.126 11.5516 53.3315C11.7447 53.5369 11.8403 53.8233 11.8403 54.1925C11.8403 54.4604 11.7985 54.6802 11.7142 54.8518C11.6299 55.0234 11.5083 55.1566 11.3492 55.2522C11.19 55.3478 10.9917 55.3952 10.7538 55.3952C10.5126 55.3952 10.3124 55.3538 10.1544 55.2717C9.99631 55.1897 9.86799 55.0591 9.76977 54.8804C9.67155 54.7016 9.62225 54.4792 9.62225 54.2113ZM10.2838 54.2143C10.2838 54.4457 10.3237 54.6121 10.4042 54.7133C10.4848 54.8145 10.5939 54.8649 10.732 54.8649C10.8743 54.8649 10.9841 54.8156 11.062 54.7163C11.1399 54.6169 11.1787 54.4393 11.1787 54.1831C11.1787 53.967 11.1384 53.8094 11.0571 53.71C10.9759 53.6107 10.8652 53.5603 10.726 53.5603C10.5928 53.5603 10.4855 53.6111 10.405 53.7119C10.3245 53.8128 10.2838 53.9806 10.2838 54.2143Z" fill="#2C2C2C"/>
<path d="M11.8283 53.0617H12.5196L13.0012 54.7122L13.4773 53.0617H14.1486L13.3539 55.355H12.6366L11.8283 53.0617Z" fill="#2C2C2C"/>
<path d="M15.48 54.9764H14.7292L14.6246 55.355H13.9491L14.7541 53.0617H15.4755L16.28 55.355H15.5872L15.48 54.9764ZM15.343 54.4808L15.1067 53.6563L14.873 54.4804H15.343V54.4808Z" fill="#2C2C2C"/>
<path d="M16.1039 53.0617H18.1149V53.6281H17.4402V55.3554H16.7786V53.6281H16.1039V53.0617Z" fill="#2C2C2C"/>
<path d="M18.4107 53.0617H19.0738V55.355H18.4107V53.0617Z" fill="#2C2C2C"/>
<path d="M19.3085 53.0617H19.9998L20.4815 54.7122L20.9575 53.0617H21.6289L20.8341 55.355H20.1168L19.3085 53.0617Z" fill="#2C2C2C"/>
<path d="M21.8136 53.0617H23.5868V53.5517H22.4766V53.9159H23.5062V54.3837H22.4766V54.8357H23.6188V55.355H21.8136V53.0617Z" fill="#2C2C2C"/>
<path d="M24.9211 55.355V53.0617H26.0237C26.2284 53.0617 26.3846 53.0805 26.4926 53.1182C26.6006 53.1558 26.6879 53.225 26.7541 53.327C26.8203 53.429 26.8535 53.5524 26.8535 53.6984C26.8535 53.826 26.8283 53.9355 26.7774 54.0281C26.7266 54.1207 26.657 54.1952 26.5682 54.2524C26.4963 54.2949 26.4178 54.3254 26.336 54.3427C26.4151 54.3713 26.4723 54.3991 26.5084 54.4274C26.5325 54.4462 26.5678 54.4864 26.6141 54.5482C26.6604 54.6099 26.6913 54.6573 26.7067 54.6904L27.0269 55.355H26.2796L25.9258 54.6543C25.8811 54.5636 25.8412 54.5049 25.8062 54.4774C25.7595 54.4424 25.7027 54.4238 25.6444 54.4243H25.5857V55.355H24.9211ZM25.5857 53.9912H25.8645C25.8946 53.9912 25.9533 53.9807 26.0399 53.96C26.0839 53.9506 26.1196 53.9261 26.1471 53.8877C26.1746 53.8493 26.1885 53.8049 26.1885 53.7549C26.1885 53.6807 26.1671 53.6243 26.123 53.5844C26.079 53.5445 25.997 53.525 25.8765 53.525H25.5857V53.9912Z" fill="#2C2C2C"/>
<path d="M27.2074 53.0617H28.9806V53.5517H27.8705V53.9159H28.9001V54.3837H27.8705V54.8357H29.0126V55.355H27.2074V53.0617Z" fill="#2C2C2C"/>
<path d="M30.6552 54.9764H29.9044L29.7998 55.355H29.1243L29.9293 53.0617H30.6507L31.4552 55.355H30.7624L30.6552 54.9764ZM30.5182 54.4808L30.2819 53.6563L30.0482 54.4804H30.5182V54.4808Z" fill="#2C2C2C"/>
<path d="M31.6354 53.0617H32.2973V54.7905H33.3296V55.355H31.6358L31.6354 53.0617ZM34.5669 53.0617H36.3393V53.5517H35.2296V53.9159H36.2592V54.3837H35.2296V54.8357H36.3717V55.355H34.5665L34.5669 53.0617Z" fill="#2C2C2C"/>
<path d="M36.5822 54.5957L37.2117 54.5535C37.2253 54.663 37.2531 54.7466 37.2949 54.8038C37.363 54.8967 37.4605 54.943 37.5869 54.943C37.6814 54.943 37.7544 54.9193 37.8052 54.8722C37.856 54.8252 37.882 54.7695 37.882 54.7067C37.882 54.6472 37.8575 54.5942 37.809 54.5471C37.7604 54.5001 37.6471 54.456 37.4703 54.4143C37.1801 54.3447 36.9735 54.2517 36.8494 54.1358C36.7252 54.0199 36.6627 53.8724 36.6627 53.6933C36.6627 53.5751 36.6947 53.4641 36.7583 53.3591C36.8219 53.2541 36.9178 53.1721 37.0462 53.1118C37.1745 53.0516 37.3495 53.0223 37.5726 53.0223C37.8462 53.0223 38.0547 53.0765 38.1984 53.1856C38.3422 53.2947 38.4272 53.4678 38.4543 53.7057L37.8312 53.7448C37.8146 53.6417 37.7796 53.5664 37.7265 53.5194C37.6735 53.4724 37.6001 53.449 37.5068 53.449C37.43 53.449 37.3721 53.4667 37.3329 53.5017C37.2938 53.5367 37.2746 53.5788 37.2746 53.6289C37.2746 53.6658 37.2908 53.6985 37.3228 53.7275C37.3547 53.7565 37.4281 53.7862 37.5448 53.8122C37.8338 53.8788 38.0411 53.9465 38.1661 54.015C38.291 54.0835 38.3825 54.1678 38.4393 54.269C38.4961 54.3702 38.5247 54.4835 38.5247 54.6084C38.5247 54.7552 38.4871 54.8907 38.4107 55.0149C38.3343 55.1391 38.2286 55.2331 38.0923 55.2975C37.9561 55.3618 37.7841 55.3934 37.5768 55.3934C37.2129 55.3934 36.9607 55.3182 36.8204 55.1684C36.68 55.0186 36.601 54.8271 36.5825 54.5957H36.5822Z" fill="#2C2C2C"/>
<path d="M38.6776 53.0617H40.6886V53.6281H40.0138V55.3554H39.3523V53.6281H38.6776V53.0617Z" fill="#2C2C2C"/>
<path d="M42.0709 54.9764H41.3202L41.2156 55.355H40.5401L41.345 53.0617H42.0664L42.871 55.355H42.1782L42.0709 54.9764ZM41.9339 54.4808L41.6976 53.6563L41.4639 54.4804H41.9339V54.4808Z" fill="#2C2C2C"/>
<path d="M42.6951 53.0617H44.7061V53.6281H44.0314V55.3554H43.3698V53.6281H42.6951V53.0617Z" fill="#2C2C2C"/>
<path d="M44.9737 53.0617H46.7469V53.5517H45.6368V53.9159H46.6664V54.3837H45.6368V54.8357H46.7789V55.355H44.9737V53.0617Z" fill="#2C2C2C"/>
<path d="M47.0671 54.7244H47.7027V55.2486C47.7027 55.4417 47.6651 55.5937 47.5898 55.7051C47.5146 55.8165 47.387 55.9158 47.206 56.0009L47.0671 55.7224C47.18 55.666 47.2579 55.6103 47.3004 55.5542C47.343 55.4981 47.3663 55.4323 47.3712 55.3563H47.0671V54.7244Z" fill="#2C2C2C"/>
<path d="M50.3552 54.9764H49.6045L49.4999 55.355H48.8244L49.6293 53.0617H50.3507L51.1553 55.355H50.4625L50.3552 54.9764ZM50.2182 54.4808L49.9819 53.6563L49.7482 54.4804H50.2182V54.4808Z" fill="#2C2C2C"/>
<path d="M51.3443 55.355V53.0617H52.4469C52.6516 53.0617 52.8078 53.0805 52.9158 53.1182C53.0238 53.1558 53.1111 53.225 53.1773 53.327C53.2435 53.429 53.2766 53.5524 53.2766 53.6984C53.2766 53.826 53.2514 53.9355 53.2006 54.0281C53.1498 54.1207 53.0802 54.1952 52.9914 54.2524C52.9194 54.2949 52.841 54.3254 52.7592 54.3427C52.8382 54.3713 52.8954 54.3991 52.9316 54.4274C52.9556 54.4462 52.991 54.4864 53.0373 54.5482C53.0836 54.6099 53.1145 54.6573 53.1299 54.6904L53.4501 55.355H52.7028L52.349 54.6543C52.3042 54.5636 52.2644 54.5049 52.2294 54.4774C52.1827 54.4424 52.1258 54.4238 52.0675 54.4243H52.0088V55.355H51.3443ZM52.0088 53.9912H52.2877C52.3178 53.9912 52.3765 53.9807 52.463 53.96C52.5071 53.9506 52.5428 53.9261 52.5703 53.8877C52.5978 53.8493 52.6117 53.8049 52.6117 53.7549C52.6117 53.6807 52.5902 53.6243 52.5462 53.5844C52.5022 53.5445 52.4201 53.525 52.2997 53.525H52.0088V53.9912Z" fill="#2C2C2C"/>
<path d="M55.0034 54.4175L55.583 54.6057C55.5442 54.7795 55.4829 54.9251 55.3989 55.0418C55.315 55.1585 55.2115 55.2465 55.0874 55.306C54.9632 55.3654 54.8051 55.3952 54.6132 55.3952C54.3806 55.3952 54.1906 55.359 54.0431 55.2868C53.8956 55.2145 53.7684 55.087 53.6611 54.9044C53.5539 54.7219 53.5004 54.4886 53.5004 54.2045C53.5004 53.8244 53.5945 53.5332 53.783 53.3296C53.9716 53.126 54.2384 53.0236 54.5827 53.0236C54.8525 53.0236 55.0644 53.0823 55.2187 53.199C55.373 53.3156 55.4878 53.4951 55.5626 53.7371L54.9786 53.8764C54.9649 53.8224 54.9433 53.7707 54.9142 53.7232C54.8774 53.669 54.8318 53.6269 54.7784 53.5979C54.725 53.5689 54.6651 53.5542 54.5989 53.5542C54.4487 53.5542 54.334 53.6186 54.2542 53.7477C54.194 53.8436 54.1639 53.9941 54.1639 54.1992C54.1639 54.4536 54.1996 54.6279 54.2715 54.7223C54.3434 54.8168 54.445 54.8634 54.5756 54.8634C54.702 54.8634 54.7976 54.8254 54.8623 54.749C54.927 54.6726 54.9741 54.5624 55.0034 54.4179V54.4175Z" fill="#2C2C2C"/>
<path d="M55.8773 53.0617H56.5389V53.8644H57.2618V53.0617H57.9264V55.355H57.2618V54.4274H56.5393V55.355H55.8773V53.0617Z" fill="#2C2C2C"/>
<path d="M58.3625 53.0617H59.0256V55.355H58.3625V53.0617Z" fill="#2C2C2C"/>
<path d="M59.3195 53.0617H61.3306V53.6281H60.6558V55.3554H59.9943V53.6281H59.3195V53.0617Z" fill="#2C2C2C"/>
<path d="M61.5984 53.0617H63.3717V53.5517H62.2615V53.9159H63.2911V54.3837H62.2615V54.8357H63.4036V55.355H61.5984V53.0617Z" fill="#2C2C2C"/>
<path d="M65.1555 54.4175L65.735 54.6057C65.6963 54.7795 65.6349 54.9251 65.551 55.0418C65.4671 55.1585 65.3636 55.2465 65.2394 55.306C65.1152 55.3654 64.9572 55.3952 64.7652 55.3952C64.5327 55.3952 64.3426 55.359 64.1951 55.2868C64.0476 55.2145 63.9204 55.087 63.8132 54.9044C63.7059 54.7219 63.6525 54.4886 63.6525 54.2045C63.6525 53.8244 63.7466 53.5332 63.9351 53.3296C64.1236 53.126 64.3904 53.0236 64.7348 53.0236C65.0046 53.0236 65.2165 53.0823 65.3707 53.199C65.525 53.3156 65.6398 53.4951 65.7147 53.7371L65.1307 53.8764C65.117 53.8224 65.0953 53.7707 65.0663 53.7232C65.0294 53.669 64.9839 53.6269 64.9304 53.5979C64.877 53.5689 64.8172 53.5542 64.751 53.5542C64.6008 53.5542 64.486 53.6186 64.4062 53.7477C64.346 53.8436 64.3159 53.9941 64.3159 54.1992C64.3159 54.4536 64.3517 54.6279 64.4236 54.7223C64.4954 54.8168 64.597 54.8634 64.7276 54.8634C64.8541 54.8634 64.9496 54.8254 65.0144 54.749C65.0791 54.6726 65.1261 54.5624 65.1555 54.4179V54.4175Z" fill="#2C2C2C"/>
<path d="M65.8758 53.0617H67.8868V53.6281H67.2121V55.3554H66.5505V53.6281H65.8758V53.0617Z" fill="#2C2C2C"/>
<path d="M69.5494 53.0617H70.2099V54.4281C70.2099 54.5636 70.1899 54.6915 70.1504 54.812C70.1109 54.9324 70.0492 55.0377 69.9649 55.1277C69.8806 55.2176 69.7925 55.2812 69.7 55.3177C69.5716 55.3685 69.417 55.3941 69.2371 55.3941C69.1329 55.3941 69.0188 55.3866 68.8962 55.3708C68.7735 55.355 68.67 55.3241 68.5872 55.2778C68.5044 55.2315 68.4288 55.1657 68.3599 55.0803C68.291 54.9948 68.2444 54.9064 68.2192 54.8157C68.1813 54.6899 68.1607 54.5595 68.1578 54.4281V53.0621H68.8179V54.4609C68.8179 54.5858 68.8502 54.6833 68.915 54.754C68.9797 54.8248 69.0693 54.8594 69.1844 54.8594C69.2996 54.8594 69.3876 54.8244 69.4524 54.7555C69.5171 54.6866 69.5494 54.5877 69.5494 54.4609V53.0617Z" fill="#2C2C2C"/>
<path d="M70.6264 55.355V53.0617H71.7291C71.9338 53.0617 72.0899 53.0805 72.1979 53.1182C72.306 53.1558 72.3933 53.225 72.4595 53.327C72.5257 53.429 72.5588 53.5524 72.5588 53.6984C72.5588 53.826 72.5336 53.9355 72.4828 54.0281C72.432 54.1207 72.3624 54.1952 72.2736 54.2524C72.2016 54.2949 72.1232 54.3254 72.0414 54.3427C72.1204 54.3713 72.1776 54.3991 72.2138 54.4274C72.2378 54.4462 72.2732 54.4864 72.3195 54.5482C72.3658 54.6099 72.3966 54.6573 72.4121 54.6904L72.7323 55.355H71.985L71.6312 54.6543C71.5864 54.5636 71.5465 54.5049 71.5115 54.4774C71.4649 54.4424 71.408 54.4238 71.3497 54.4243H71.291V55.355H70.6264ZM71.291 53.9912H71.5699C71.6 53.9912 71.6587 53.9807 71.7452 53.96C71.7893 53.9506 71.825 53.9261 71.8525 53.8877C71.88 53.8493 71.8939 53.8049 71.8939 53.7549C71.8939 53.6807 71.8724 53.6243 71.8284 53.5844C71.7844 53.5445 71.7023 53.525 71.5819 53.525H71.291V53.9912Z" fill="#2C2C2C"/>
<path d="M72.9128 53.0617H74.686V53.5517H73.5759V53.9159H74.6055V54.3837H73.5759V54.8357H74.718V55.355H72.9128V53.0617Z" fill="#2C2C2C"/>
<path d="M77.3278 54.9764H76.5771L76.4725 55.355H75.797L76.6019 53.0617H77.3233L78.1279 55.355H77.4351L77.3278 54.9764ZM77.1909 54.4808L76.9545 53.6563L76.7208 54.4804H77.1909V54.4808Z" fill="#2C2C2C"/>
<path d="M78.3127 53.0617H78.9306L79.7367 54.3306V53.0617H80.3602V55.355H79.7367L78.9351 54.0958V55.355H78.3123V53.0617H78.3127Z" fill="#2C2C2C"/>
<path d="M80.779 53.0617H81.7615C81.9553 53.0617 82.1119 53.0899 82.2312 53.1464C82.3504 53.2028 82.4494 53.2834 82.5269 53.3887C82.6045 53.4941 82.6613 53.6164 82.6963 53.7564C82.7313 53.8964 82.749 54.0443 82.749 54.2004C82.749 54.4458 82.7226 54.6358 82.6707 54.7706C82.6188 54.9053 82.5465 55.0189 82.4539 55.1104C82.3614 55.2018 82.262 55.2624 82.1559 55.2925C82.011 55.3339 81.8797 55.3554 81.7615 55.3554H80.779V53.0621V53.0617ZM81.4405 53.581V54.8342H81.6023C81.7408 54.8342 81.8394 54.8176 81.8974 54.7852C81.9553 54.7529 82.0016 54.6949 82.0347 54.6129C82.0678 54.5308 82.0844 54.3984 82.0844 54.2147C82.0844 53.9716 82.0475 53.8057 81.9734 53.7157C81.8992 53.6258 81.7769 53.5814 81.6053 53.5814H81.4405V53.581Z" fill="#2C2C2C"/>
<path d="M84.0428 53.0617H85.0254C85.2192 53.0617 85.3757 53.0899 85.495 53.1464C85.6143 53.2028 85.7133 53.2834 85.7908 53.3887C85.8683 53.4941 85.9252 53.6164 85.9602 53.7564C85.9952 53.8964 86.0128 54.0443 86.0128 54.2004C86.0128 54.4458 85.9865 54.6358 85.9346 54.7706C85.8826 54.9053 85.8104 55.0189 85.7178 55.1104C85.6252 55.2018 85.5259 55.2624 85.4198 55.2925C85.2749 55.3339 85.1436 55.3554 85.0254 55.3554H84.0428V53.0621V53.0617ZM84.7044 53.581V54.8342H84.8662C85.0047 54.8342 85.1033 54.8176 85.1612 54.7852C85.2192 54.7529 85.2655 54.6949 85.2986 54.6129C85.3317 54.5308 85.3483 54.3984 85.3483 54.2147C85.3483 53.9716 85.3114 53.8057 85.2373 53.7157C85.1631 53.6258 85.0408 53.5814 84.8692 53.5814H84.7044V53.581Z" fill="#2C2C2C"/>
<path d="M86.3286 53.0617H88.1018V53.5517H86.9917V53.9159H88.0213V54.3837H86.9917V54.8357H88.1338V55.355H86.3286V53.0617Z" fill="#2C2C2C"/>
<path d="M88.3449 54.5957L88.9745 54.5535C88.988 54.663 89.0159 54.7466 89.0577 54.8038C89.1258 54.8967 89.2232 54.943 89.3497 54.943C89.4441 54.943 89.5171 54.9193 89.5679 54.8722C89.6187 54.8252 89.6447 54.7695 89.6447 54.7067C89.6447 54.6472 89.6202 54.5942 89.5717 54.5471C89.5232 54.5001 89.4099 54.456 89.233 54.4143C88.9429 54.3447 88.7363 54.2517 88.6121 54.1358C88.4879 54.0199 88.4254 53.8724 88.4254 53.6933C88.4254 53.5751 88.4574 53.4641 88.521 53.3591C88.5846 53.2541 88.6806 53.1721 88.8089 53.1118C88.9372 53.0516 89.1122 53.0223 89.3354 53.0223C89.609 53.0223 89.8174 53.0765 89.9612 53.1856C90.1049 53.2947 90.19 53.4678 90.2171 53.7057L89.5939 53.7448C89.5773 53.6417 89.5423 53.5664 89.4893 53.5194C89.4362 53.4724 89.3628 53.449 89.2695 53.449C89.1928 53.449 89.1348 53.4667 89.0957 53.5017C89.0565 53.5367 89.0373 53.5788 89.0373 53.6289C89.0373 53.6658 89.0535 53.6985 89.0855 53.7275C89.1175 53.7565 89.1909 53.7862 89.3075 53.8122C89.5965 53.8788 89.8039 53.9465 89.9288 54.015C90.0538 54.0835 90.1452 54.1678 90.202 54.269C90.2589 54.3702 90.2875 54.4835 90.2875 54.6084C90.2875 54.7552 90.2498 54.8907 90.1734 55.0149C90.097 55.1391 89.9913 55.2331 89.8551 55.2975C89.7188 55.3618 89.5469 55.3934 89.3395 55.3934C88.9756 55.3934 88.7235 55.3182 88.5831 55.1684C88.4428 55.0186 88.3637 54.8271 88.3453 54.5957H88.3449Z" fill="#2C2C2C"/>
<path d="M90.6167 53.0617H91.2798V55.355H90.6167V53.0617Z" fill="#2C2C2C"/>
<path d="M92.8005 54.5255V54.0483H93.8229V55.026C93.6273 55.169 93.4541 55.2661 93.3036 55.318C93.1531 55.37 92.9747 55.3952 92.7685 55.3952C92.5141 55.3952 92.3071 55.3489 92.1468 55.2559C91.9865 55.163 91.8627 55.0253 91.7743 54.8416C91.6858 54.658 91.6426 54.4472 91.6426 54.2094C91.6426 53.9591 91.6907 53.7416 91.7871 53.5565C91.8834 53.3713 92.0245 53.231 92.2104 53.135C92.3557 53.0609 92.5506 53.0236 92.796 53.0236C93.0331 53.0236 93.2099 53.0466 93.327 53.0925C93.444 53.1384 93.5418 53.2095 93.6194 53.3062C93.6969 53.403 93.7548 53.5249 93.7936 53.6731L93.1554 53.7951C93.129 53.7085 93.0846 53.6423 93.0218 53.5964C92.9589 53.5505 92.8788 53.5275 92.7817 53.5275C92.6364 53.5275 92.5209 53.5817 92.4347 53.6893C92.3485 53.797 92.3056 53.9678 92.3056 54.2019C92.3056 54.4499 92.3489 54.6271 92.4362 54.7336C92.5235 54.8401 92.6447 54.8932 92.8005 54.8932C92.8746 54.8932 92.945 54.8815 93.0124 54.8585C93.0797 54.8356 93.1565 54.7968 93.243 54.7415V54.5255H92.8005ZM94.1902 53.0628H94.8078L95.6142 54.3317V53.0628H96.2374V55.356H95.6142L94.8127 54.0969V55.356H94.1902V53.0628Z" fill="#2C2C2C"/>
<path d="M97.6412 53.0617H98.3043V55.355H97.6412V53.0617Z" fill="#2C2C2C"/>
<path d="M98.753 53.0617H99.3709L100.177 54.3306V53.0617H100.801V55.355H100.177L99.3754 54.0958V55.355H98.7526V53.0617H98.753Z" fill="#2C2C2C"/>
<path d="M103.494 54.9764H102.743L102.639 55.355H101.964L102.768 53.0617H103.49L104.294 55.355H103.602L103.494 54.9764H103.494ZM103.357 54.4808L103.121 53.6563L102.887 54.4804H103.357L103.357 54.4808Z" fill="#2C2C2C"/>
<path d="M104.359 54.5957L104.989 54.5535C105.003 54.663 105.03 54.7466 105.072 54.8038C105.14 54.8967 105.237 54.943 105.364 54.943C105.458 54.943 105.531 54.9193 105.582 54.8722C105.633 54.8252 105.659 54.7695 105.659 54.7067C105.659 54.6472 105.635 54.5942 105.586 54.5471C105.537 54.5001 105.424 54.456 105.247 54.4143C104.957 54.3447 104.75 54.2517 104.626 54.1358C104.503 54.0199 104.44 53.8724 104.44 53.6933C104.439 53.5695 104.476 53.4483 104.544 53.345C104.612 53.2416 104.709 53.1605 104.823 53.1118C104.951 53.0516 105.126 53.0223 105.35 53.0223C105.623 53.0223 105.832 53.0765 105.975 53.1856C106.119 53.2947 106.204 53.4678 106.231 53.7057L105.608 53.7448C105.591 53.6417 105.557 53.5664 105.504 53.5194C105.45 53.4724 105.377 53.449 105.284 53.449C105.207 53.449 105.149 53.4667 105.11 53.5017C105.071 53.5367 105.052 53.5788 105.052 53.6289C105.052 53.6658 105.068 53.6985 105.1 53.7275C105.132 53.7565 105.205 53.7862 105.322 53.8122C105.611 53.8788 105.818 53.9465 105.943 54.015C106.069 54.0835 106.159 54.1678 106.216 54.269C106.272 54.3702 106.302 54.4835 106.302 54.6084C106.302 54.7552 106.264 54.8907 106.188 55.0149C106.112 55.1391 106.006 55.2331 105.869 55.2975C105.733 55.3618 105.561 55.3934 105.354 55.3934C104.989 55.3934 104.738 55.3182 104.597 55.1684C104.457 55.0186 104.378 54.8271 104.359 54.5957Z" fill="#2C2C2C"/>
<path d="M106.631 53.0617H107.294V55.355H106.631V53.0617Z" fill="#2C2C2C"/>
<path d="M109.055 54.9764H108.303L108.199 55.355H107.524L108.328 53.0617H109.05L109.854 55.355H109.162L109.054 54.9764H109.055ZM108.917 54.4808L108.681 53.6563L108.447 54.4804H108.918L108.917 54.4808Z" fill="#2C2C2C"/>
<path d="M111 53.0617H112.099C112.339 53.0617 112.518 53.123 112.638 53.245C112.757 53.3669 112.816 53.5404 112.816 53.7658C112.816 53.9972 112.752 54.1782 112.621 54.3084C112.491 54.4386 112.293 54.5041 112.026 54.5041H111.664V55.355H111V53.0617ZM111.664 54.0394H111.826C111.954 54.0394 112.043 54.0157 112.095 53.9686C112.146 53.9216 112.172 53.8603 112.172 53.7861C112.172 53.7142 112.15 53.6533 112.105 53.6032C112.061 53.5532 111.976 53.528 111.853 53.528H111.664V54.0394Z" fill="#2C2C2C"/>
<path d="M114.195 54.9764H113.443L113.339 55.355H112.664L113.468 53.0617H114.19L114.994 55.355H114.302L114.194 54.9764H114.195ZM114.057 54.4808L113.821 53.6563L113.587 54.4804H114.058L114.057 54.4808Z" fill="#2C2C2C"/>
<path d="M116.546 54.4175L117.126 54.6057C117.087 54.7795 117.026 54.9251 116.942 55.0418C116.858 55.1585 116.754 55.2465 116.63 55.306C116.506 55.3654 116.348 55.3952 116.156 55.3952C115.924 55.3952 115.734 55.359 115.586 55.2868C115.438 55.2145 115.311 55.087 115.204 54.9044C115.097 54.7219 115.044 54.4886 115.044 54.2045C115.044 53.8244 115.138 53.5332 115.326 53.3296C115.514 53.126 115.781 53.0236 116.126 53.0236C116.395 53.0236 116.607 53.0823 116.762 53.199C116.916 53.3156 117.031 53.4951 117.106 53.7371L116.521 53.8764C116.508 53.8223 116.486 53.7707 116.457 53.7232C116.42 53.669 116.375 53.6269 116.322 53.5979C116.269 53.5689 116.208 53.5542 116.142 53.5542C115.992 53.5542 115.877 53.6186 115.797 53.7477C115.737 53.8436 115.707 53.9941 115.707 54.1992C115.707 54.4536 115.743 54.6279 115.814 54.7223C115.886 54.8168 115.987 54.8634 116.118 54.8634C116.245 54.8634 116.34 54.8254 116.406 54.749C116.471 54.6726 116.517 54.5624 116.546 54.4179V54.4175Z" fill="#2C2C2C"/>
<path d="M117.444 53.0617H118.107V55.355H117.444V53.0617Z" fill="#2C2C2C"/>
<path d="M118.554 53.0617H120.19V53.5547H119.219V53.9551H120.048V54.418H119.219V55.355H118.554V53.0617Z" fill="#2C2C2C"/>
<path d="M120.543 53.0617H121.206V55.355H120.543V53.0617Z" fill="#2C2C2C"/>
<path d="M123.076 54.4175L123.655 54.6057C123.616 54.7795 123.555 54.9251 123.471 55.0418C123.387 55.1585 123.283 55.2465 123.16 55.306C123.036 55.3654 122.877 55.3952 122.685 55.3952C122.453 55.3952 122.263 55.359 122.115 55.2868C121.967 55.2145 121.841 55.087 121.733 54.9044C121.626 54.7219 121.573 54.4886 121.573 54.2045C121.573 53.8244 121.667 53.5332 121.855 53.3296C122.043 53.126 122.311 53.0236 122.655 53.0236C122.925 53.0236 123.137 53.0823 123.291 53.199C123.445 53.3156 123.56 53.4951 123.635 53.7371L123.051 53.8764C123.037 53.8223 123.016 53.7707 122.986 53.7232C122.949 53.669 122.904 53.6269 122.851 53.5979C122.798 53.5689 122.737 53.5542 122.671 53.5542C122.521 53.5542 122.406 53.6186 122.326 53.7477C122.266 53.8436 122.236 53.9941 122.236 54.1992C122.236 54.4536 122.272 54.6279 122.344 54.7223C122.416 54.8168 122.517 54.8634 122.648 54.8634C122.774 54.8634 122.87 54.8254 122.935 54.749C123 54.6726 123.046 54.5624 123.076 54.4179V54.4175Z" fill="#2C2C2C"/>
<path d="M80.7378 32.0069C80.4548 32.0069 80.2682 32.0664 80.1824 32.1883C80.0932 32.311 80.0506 32.5609 80.0506 32.9402C80.0506 33.3331 79.9867 33.8279 79.8625 34.4251C79.7628 34.8902 79.7127 35.2128 79.7127 35.3851C79.7127 35.6022 79.7876 35.714 79.9366 35.7219C80.0856 35.7298 80.2004 35.5691 80.2757 35.2455C80.4416 34.4959 80.6776 33.9856 80.982 33.7154C81.2865 33.4452 81.7761 33.309 82.4515 33.309H85.7669C86.0815 33.309 86.2836 33.3504 86.3716 33.4316C86.4601 33.5182 86.5041 33.7094 86.5041 34.0093L86.5154 34.3352V46.7517C86.5154 47.4528 86.4051 47.9398 86.1816 48.2115C85.9539 48.4835 85.5204 48.6619 84.8777 48.7432C84.6037 48.7789 84.466 48.8599 84.466 48.9886C84.466 49.1669 84.5909 49.2595 84.8423 49.2595C84.9266 49.2595 85.2062 49.2328 85.6815 49.1805L86.5699 49.1451L87.5484 49.1319L88.4647 49.1447L89.5903 49.1809L90.2048 49.2591C90.44 49.2591 90.5563 49.1669 90.5563 48.9886C90.5563 48.8493 90.4118 48.7545 90.1197 48.7075C89.0691 48.5227 88.5219 47.9435 88.4816 46.9651L88.47 46.474V34.1963C88.47 33.805 88.5163 33.5581 88.6122 33.458C88.7082 33.3579 88.9396 33.3086 89.305 33.3086H92.8228C93.5216 33.3086 93.9932 33.397 94.2348 33.5769C94.4767 33.7545 94.6525 34.141 94.7605 34.7329C94.8132 35.0016 94.911 35.1292 95.0596 35.1224C95.244 35.1063 95.3306 34.9727 95.3246 34.722L95.2489 34.1132C95.2079 33.8881 95.1865 33.531 95.1865 33.0429C95.1865 32.5507 95.1383 32.2579 95.0416 32.1559C94.946 32.057 94.669 32.0069 94.2107 32.0069H80.7378ZM69.1981 40.0823C69.0938 39.9762 69.0426 39.7285 69.0426 39.3334V34.24L69.028 33.8279C69.028 33.397 69.1232 33.1031 69.3117 32.9398C69.5002 32.7765 69.8397 32.6952 70.3308 32.6952C71.6528 32.6952 72.74 33.0869 73.5919 33.8678C74.4462 34.6509 74.8714 35.6485 74.8714 36.8633C74.8714 37.9079 74.5579 38.7336 73.9314 39.3334C73.3041 39.9374 72.443 40.2388 71.348 40.2388H69.933C69.5473 40.2388 69.3027 40.1861 69.1981 40.0823ZM69.1303 31.9083L67.1667 31.9953C66.7227 31.9953 66.3516 31.9817 66.0524 31.9569L65.176 31.9079C64.893 31.9079 64.7515 31.993 64.7515 32.1638C64.7515 32.3106 64.8851 32.4092 65.1523 32.457L65.7382 32.5447C66.6481 32.6963 67.1035 33.4226 67.1035 34.725L67.1276 36.0279V45.0229C67.1276 46.4368 67.0237 47.3802 66.8156 47.8604C66.6075 48.3405 66.1683 48.6431 65.5015 48.7688C65.2915 48.8087 65.1877 48.8907 65.1877 49.0149C65.1877 49.1861 65.2915 49.2685 65.5015 49.2685C65.6261 49.2685 65.8522 49.252 66.1762 49.2208C66.5171 49.1815 66.8598 49.1611 67.2028 49.1594L67.852 49.1447L69.0547 49.1598L70.642 49.2121L71.3807 49.2685C71.6716 49.2685 71.8097 49.1873 71.7924 49.0247C71.7841 48.8715 71.6306 48.7786 71.331 48.7432C70.5803 48.6679 70.026 48.4881 69.6677 48.2047C69.3998 47.9951 69.2312 47.7576 69.1597 47.4942C69.0889 47.233 69.0547 46.7401 69.0547 46.0209L69.0426 45.5182V41.6026C69.0426 41.3945 69.0919 41.2617 69.1898 41.2022L69.4675 41.1506H71.1312C71.5794 41.1506 71.9053 41.3222 72.1059 41.6651L72.2812 41.9387L75.3967 46.6945C76.0132 47.6278 76.6194 48.2988 77.217 48.7123C77.8123 49.1263 78.4844 49.3333 79.2359 49.3333C79.695 49.3333 80.1063 49.2802 80.4691 49.1801C80.8319 49.08 81.0159 48.9618 81.0261 48.8339C81.0336 48.7259 80.9617 48.6646 80.8127 48.657L80.4138 48.6326C79.5121 48.5742 78.5273 47.761 77.459 46.1993L77.0597 45.6006L73.607 40.509C75.6681 39.4828 76.6973 38.0306 76.6973 36.152C76.6973 34.725 76.2096 33.6492 75.2338 32.927C74.258 32.2049 72.8126 31.8436 70.8915 31.8436C70.3039 31.846 69.7165 31.8676 69.1303 31.9083ZM5.6849 40.2599C5.58142 40.1545 5.52911 39.9062 5.52911 39.511V34.418L5.51782 34.0059C5.51782 33.5758 5.61115 33.2811 5.7993 33.1186C5.98633 32.9537 6.3269 32.8739 6.8195 32.8739C8.1415 32.8739 9.22679 33.2653 10.0784 34.0462C10.9319 34.8289 11.359 35.8269 11.359 37.0413C11.359 38.0859 11.0459 38.9116 10.4193 39.5114C9.79089 40.1154 8.93101 40.4172 7.83706 40.4172H6.41834C6.03488 40.4172 5.7899 40.3638 5.6849 40.2599ZM5.61604 32.0867L3.65242 32.1732C3.28139 32.1754 2.91042 32.1627 2.54041 32.1352L1.66321 32.0863C1.38022 32.0863 1.23797 32.1714 1.23797 32.3422C1.23797 32.489 1.37081 32.5868 1.63988 32.635L2.22618 32.723C3.13574 32.8747 3.59146 33.6006 3.59146 34.903L3.61592 36.2062V45.2013C3.61592 46.6151 3.51055 47.5586 3.30245 48.0387C3.09434 48.5189 2.65631 48.8215 1.98835 48.9472C1.77987 48.9867 1.67563 49.0687 1.67563 49.1933C1.67563 49.3641 1.77987 49.4465 1.98797 49.4465C2.11366 49.4465 2.33908 49.4304 2.66497 49.3987C3.00541 49.3596 3.34775 49.3393 3.69043 49.3378L4.34033 49.3227L5.5419 49.3378L7.12921 49.3905L7.86716 49.4469C8.16144 49.4469 8.29767 49.3653 8.28111 49.2031C8.27321 49.0499 8.11967 48.957 7.81824 48.9216C7.06824 48.8463 6.51318 48.6664 6.15492 48.3831C5.88924 48.1735 5.7184 47.9356 5.64878 47.6726C5.57652 47.411 5.5419 46.9184 5.5419 46.1993L5.52911 45.6962V41.781C5.52911 41.5729 5.57841 41.44 5.68001 41.3802L5.95472 41.3286H7.61804C8.06774 41.3286 8.39363 41.5006 8.59383 41.8431L8.76882 42.1167L11.8832 46.8725C12.5015 47.8062 13.107 48.4771 13.7027 48.8907C14.2984 49.3043 14.9735 49.5116 15.7235 49.5116C16.1834 49.5116 16.5939 49.4582 16.956 49.3581C17.318 49.258 17.5046 49.1402 17.5129 49.0119C17.5212 48.9039 17.4516 48.8429 17.2999 48.835L16.901 48.8106C15.999 48.7526 15.0157 47.9394 13.9481 46.3773L13.5473 45.779L10.0946 40.6874C12.1557 39.6612 13.1856 38.209 13.1856 36.3304C13.1856 34.903 12.6976 33.8275 11.7218 33.1054C10.746 32.3832 9.29904 32.022 7.37946 32.022C6.87143 32.022 6.28438 32.0427 5.61604 32.0867ZM37.7075 32.092L35.3838 32.2252C35.0425 32.2252 34.6078 32.1891 34.0806 32.1145C33.8134 32.0743 33.6008 32.0521 33.4446 32.0521C33.1266 32.0521 32.9637 32.1499 32.9581 32.3448C32.9468 32.5003 33.0551 32.5868 33.2817 32.6034C34.1148 32.6941 34.6372 32.971 34.8453 33.4339C35.0534 33.8968 35.1569 35.0031 35.1569 36.7545V44.3396C35.1569 45.9889 35.0395 47.1303 34.8012 47.7629C34.563 48.3989 34.1201 48.7624 33.4691 48.8651C33.1948 48.9046 33.0551 49.0036 33.0551 49.1587C33.0551 49.3205 33.165 49.401 33.3807 49.401C33.5319 49.401 33.7683 49.3796 34.0938 49.3404C34.3452 49.3073 34.7147 49.29 35.2065 49.29L36.1831 49.2757L37.0708 49.3039L38.3721 49.3269L39.2102 49.3796C39.5187 49.3796 39.6655 49.2712 39.649 49.0597C39.6407 48.9114 39.5101 48.8377 39.261 48.8377C39.0277 48.8377 38.6803 48.7763 38.222 48.651C37.5623 48.4839 37.1897 47.895 37.0953 46.8823L37.0599 45.8347L37.0708 44.6199V34.1798L37.0836 33.817C37.0836 33.4644 37.1468 33.2288 37.271 33.102C37.3963 32.9767 37.6255 32.9161 37.957 32.9161C39.4141 32.9161 40.6176 33.3285 41.5655 34.1561C42.5135 34.9836 42.988 36.0316 42.988 37.2953C42.988 38.3896 42.6279 39.2687 41.9095 39.9287C41.1892 40.5881 40.2307 40.9222 39.0322 40.9222C38.6073 40.9222 38.2984 40.8906 38.1102 40.8334C38.0287 40.8119 37.945 40.7995 37.8607 40.7965C37.7177 40.7965 37.6375 40.8458 37.6225 40.9448C37.6059 41.075 37.8152 41.1969 38.2536 41.311C38.692 41.425 39.1733 41.4826 39.6971 41.4826C40.8159 41.4826 41.8749 41.1326 42.8766 40.4319C44.2095 39.4918 44.8771 38.2018 44.8771 36.5656C44.8771 35.2165 44.3315 34.1222 43.2443 33.2834C42.1571 32.4446 40.7406 32.0254 38.9975 32.0254C38.6641 32.0254 38.2351 32.0483 37.7075 32.092ZM50.4124 45.6514C48.9545 43.9218 48.226 41.7926 48.226 39.2709C48.226 37.0639 48.7953 35.3087 49.9359 34.0063C51.0728 32.7031 52.6134 32.0498 54.5488 32.0498C56.803 32.0498 58.6857 32.8815 60.1954 34.544C61.7067 36.2032 62.4628 38.2794 62.4628 40.7702C62.4628 42.9351 61.8317 44.7215 60.571 46.1335C59.3122 47.5439 57.7125 48.2495 55.7764 48.2495C53.6551 48.2495 51.8694 47.3851 50.4124 45.6514ZM51.6662 31.9444C50.465 32.4163 49.4716 33.0501 48.6884 33.8516C47.9467 34.6095 47.3567 35.5537 46.9198 36.6815C46.4814 37.8112 46.2623 38.9515 46.2623 40.1C46.2623 42.7504 47.094 44.8935 48.7554 46.5244C50.4218 48.1588 52.6006 48.9776 55.2947 48.9776C57.9202 48.9776 60.0769 48.1208 61.7605 46.4138C63.4442 44.7068 64.2898 42.5186 64.2898 39.8509C64.2898 37.334 63.4528 35.2711 61.7809 33.6578C60.1089 32.0445 57.9688 31.2389 55.3571 31.2389C54.0972 31.2389 52.8667 31.4729 51.6662 31.9444ZM18.4639 32.3283C18.4639 32.4837 18.5843 32.5609 18.8266 32.5609C19.5864 32.5609 20.0963 32.7652 20.3609 33.1773C20.622 33.5931 20.753 34.398 20.753 35.5921V46.1775L20.7413 46.9941C20.7413 47.9966 20.4421 48.5791 19.8408 48.747L19.3644 48.8855C19.148 48.9415 19.0407 49.0401 19.0407 49.179C19.0407 49.3577 19.174 49.4462 19.4396 49.4462C19.5563 49.4462 19.7738 49.4168 20.0907 49.3585C20.6901 49.2614 21.7201 49.2106 23.178 49.2106C24.2226 49.2106 25.5397 49.2847 27.1315 49.4371C27.4558 49.4645 27.7809 49.4804 28.1062 49.4845C29.225 49.4845 30.1515 49.0375 30.8853 48.1373C31.4934 47.3911 31.7986 46.7487 31.7986 46.208C31.7986 45.9825 31.7219 45.8742 31.5679 45.8843C31.475 45.8911 31.3802 45.966 31.2861 46.1082C30.3536 47.5857 28.2488 48.3217 24.979 48.3217C23.9449 48.3217 23.3018 48.2325 23.0489 48.0583C22.793 47.8822 22.6673 47.4412 22.6673 46.7307V42.1208L22.6541 41.7042C22.6541 41.4577 22.7241 41.2857 22.86 41.2033C22.9958 41.1209 23.2713 41.078 23.6781 41.078H26.4346C27.1534 41.078 27.6606 41.1781 27.9598 41.3802C28.2575 41.58 28.4581 41.959 28.5582 42.5163L28.6334 42.8655C28.6673 43.0518 28.7764 43.1421 28.9533 43.1421C29.1162 43.1421 29.1975 43.0386 29.1975 42.8305C29.1975 42.7571 29.1889 42.6348 29.1712 42.4696C29.1218 41.9676 29.0971 41.4635 29.097 40.9591C29.097 40.293 29.1335 39.5554 29.2077 38.7528C29.219 38.6271 29.2205 38.5352 29.2205 38.4754C29.2205 38.2579 29.1422 38.1469 28.9778 38.1386C28.8065 38.13 28.7019 38.2308 28.6583 38.4385C28.5495 38.9891 28.4287 39.3417 28.297 39.4892C28.1615 39.6397 27.871 39.762 27.4194 39.8542C26.9125 39.9532 26.2197 40.0059 25.3437 40.0059H23.4192C23.059 40.0059 22.8442 39.9645 22.7734 39.884C22.7027 39.8034 22.6673 39.5739 22.6673 39.1878V34.1406C22.6673 33.6981 22.7426 33.4098 22.8905 33.2815C23.0414 33.1517 23.374 33.0866 23.8896 33.0866H25.8524C27.1406 33.0866 28.0279 33.1483 28.5119 33.2736C28.9958 33.3989 29.3134 33.6473 29.4734 34.0247C29.5705 34.2674 29.6213 34.5211 29.6213 34.7849V35.113C29.6213 35.3701 29.7025 35.4965 29.864 35.4875C30.0092 35.4792 30.1022 35.4148 30.1443 35.2925C30.188 35.1744 30.2301 34.8707 30.2723 34.389L30.3231 33.6571C30.3637 33.1088 30.3983 32.7765 30.4232 32.6572C30.448 32.542 30.4608 32.4476 30.4608 32.3712C30.4608 32.1307 30.3231 32.008 30.0469 32.008C29.9396 32.008 29.7725 32.0276 29.5475 32.0585C29.4369 32.0765 29.1392 32.0927 28.6455 32.1093L26.8704 32.1977C26.0846 32.2323 25.1871 32.2481 24.1684 32.2481C22.4916 32.2481 21.0593 32.1827 19.8641 32.0468C19.5168 32.0054 19.2364 31.9855 19.0272 31.9855C18.6513 31.9855 18.4639 32.0995 18.4639 32.329M52.0828 11.6166L49.7591 11.7498C49.4174 11.7498 48.9831 11.7141 48.4559 11.6392C48.1887 11.5989 47.9761 11.5771 47.8199 11.5771C47.5015 11.5771 47.339 11.6749 47.3333 11.8695C47.322 12.0249 47.4308 12.1115 47.657 12.128C48.4901 12.2183 49.0125 12.4957 49.2206 12.9585C49.4287 13.4214 49.5321 14.5278 49.5321 16.2792V23.8638C49.5321 25.5136 49.4147 26.6549 49.1762 27.2872C48.9383 27.9231 48.495 28.287 47.8444 28.3898C47.57 28.4293 47.4304 28.5282 47.4304 28.6833C47.4304 28.8451 47.5403 28.9256 47.7556 28.9256C47.9068 28.9256 48.1439 28.9042 48.4691 28.8651C48.7204 28.8316 49.09 28.815 49.5818 28.815L50.5587 28.8007L51.4461 28.8289L52.7478 28.8515L53.5858 28.9042C53.8944 28.9042 54.0412 28.7962 54.0242 28.5843C54.0163 28.4361 53.885 28.3623 53.6366 28.3623C53.4033 28.3623 53.0552 28.301 52.5969 28.1756C51.9376 28.0093 51.5654 27.4196 51.4706 26.4073L51.4352 25.3593L51.4461 24.1449V13.7044L51.4589 13.3416C51.4589 12.989 51.5221 12.7534 51.6467 12.6266C51.7716 12.5013 52.0008 12.4404 52.3327 12.4404C53.7894 12.4404 54.9929 12.8532 55.9408 13.6811C56.8888 14.509 57.3633 15.5563 57.3633 16.8195C57.3633 17.9146 57.0032 18.7937 56.2848 19.4538C55.5645 20.1127 54.606 20.4472 53.4075 20.4472C52.9826 20.4472 52.6736 20.4152 52.4851 20.358C52.4038 20.3367 52.3204 20.3244 52.2364 20.3215C52.0934 20.3215 52.0132 20.3705 51.9978 20.4694C51.9812 20.5996 52.1904 20.7216 52.6292 20.8356C53.068 20.9496 53.5486 21.0076 54.0728 21.0076C55.1916 21.0076 56.2501 20.6576 57.2515 19.9565C58.5852 19.0157 59.2524 17.7261 59.2524 16.0902C59.2524 14.7411 58.7067 13.6468 57.6199 12.808C56.5331 11.9692 55.1159 11.55 53.3725 11.55C53.0394 11.55 52.6104 11.5733 52.0828 11.6166ZM18.7359 19.8933C18.6302 19.7902 18.579 19.5403 18.579 19.1471V14.051L18.5655 13.6389C18.5655 13.2099 18.6614 12.9168 18.8469 12.7534C19.0351 12.5897 19.3779 12.507 19.8713 12.507C21.1906 12.507 22.2763 12.8998 23.1294 13.6792C23.9829 14.4634 24.407 15.461 24.407 16.6735C24.407 17.7186 24.0939 18.5438 23.467 19.1471C22.8412 19.7477 21.9805 20.0491 20.8847 20.0491H19.4682C19.084 20.0491 18.8383 19.9983 18.7359 19.8933ZM18.6674 11.7186L16.7019 11.8063C16.2598 11.8063 15.8898 11.7942 15.5895 11.7675L14.7135 11.7186C14.4305 11.7186 14.2882 11.8044 14.2882 11.976C14.2882 12.1227 14.4218 12.2206 14.6879 12.2676L15.2757 12.3568C16.1849 12.507 16.6406 13.2348 16.6406 14.5376L16.6651 15.8381V24.8351C16.6651 26.2493 16.5604 27.1923 16.352 27.6736C16.1442 28.1523 15.7055 28.4545 15.0386 28.5787C14.8301 28.6227 14.7244 28.7032 14.7244 28.8255C14.7244 28.9968 14.8301 29.0826 15.039 29.0826C15.1636 29.0826 15.3882 29.0645 15.7137 29.031L16.7384 28.9704L17.3902 28.9572L18.591 28.9704L20.1795 29.0269L20.9174 29.0826C21.2098 29.0826 21.3468 28.9998 21.3306 28.8387C21.3227 28.6814 21.1673 28.5896 20.8663 28.5565C20.1174 28.482 19.5623 28.301 19.2033 28.0168C18.9373 27.8057 18.7679 27.5713 18.6972 27.3079C18.6264 27.0444 18.591 26.5526 18.591 25.8316L18.5794 25.3326V21.4162C18.5794 21.2033 18.6268 21.0734 18.728 21.0125L19.0046 20.9647H20.6679C21.1199 20.9647 21.4435 21.1329 21.6433 21.4753L21.8191 21.7519L24.9335 26.5044C25.5499 27.4377 26.158 28.1098 26.7533 28.526C27.3491 28.9369 28.0238 29.1435 28.7723 29.1435C29.2321 29.1435 29.6431 29.0908 30.0066 28.9911C30.3679 28.888 30.5538 28.7751 30.5617 28.6464C30.5707 28.5365 30.5015 28.4771 30.349 28.468L29.9498 28.444C29.05 28.3879 28.0644 27.5747 26.9964 26.0114L26.596 25.4108L23.1449 20.3212C25.2037 19.2953 26.2344 17.8424 26.2344 15.9657C26.2344 14.5357 25.7463 13.4602 24.7717 12.7407C23.7955 12.017 22.3497 11.6561 20.429 11.6561C19.9213 11.6561 19.3335 11.6776 18.6674 11.7186ZM40.5984 28.5775H39.7291V20.8619H44.4421V25.9396H43.5728V21.7316H40.5984V28.5775ZM39.1251 28.7514H38.2558V19.7793L34.8829 16.5542V28.0857H34.0136V14.5184L39.1251 19.4075V28.7514Z" fill="#2C2C2C"/>
<path d="M36.296 28.4939H35.4267V20.0351H32.4527V26.6906H31.5834V19.1654H36.2956L36.296 28.4939ZM37.3982 28.4939H36.5289V23.3324H41.5761V28.2508H40.7068V24.2016H37.3982V28.4939Z" fill="#2C2C2C"/>
<path d="M32.8448 25.8958C31.3866 24.164 30.6588 22.0363 30.6588 19.5146C30.6588 17.3064 31.2296 15.5513 32.3669 14.2492C33.5071 12.946 35.0455 12.2939 36.9797 12.2939C39.2343 12.2939 41.1181 13.124 42.6275 14.7862C44.1392 16.4473 44.8944 18.5204 44.8944 21.0127C44.8944 23.1777 44.2645 24.9652 43.0023 26.3775C42.5029 26.9367 41.9509 27.3849 41.3454 27.7225C40.4234 28.2365 39.3784 28.4939 38.2088 28.4939C36.0894 28.4939 34.3004 27.6284 32.8448 25.8958ZM34.0994 12.1885C32.8982 12.6585 31.9047 13.2937 31.119 14.0938C30.3784 14.8524 29.7898 15.7974 29.3514 16.9267C28.913 18.056 28.6933 19.1936 28.6933 20.3448C28.6933 22.9929 29.5272 25.1342 31.1901 26.7704C32.8534 28.4025 35.0338 29.2202 37.7248 29.2202C40.3523 29.2202 42.5097 28.3671 44.193 26.6571C45.8762 24.9471 46.7203 22.7611 46.7203 20.0938C46.7203 17.5766 45.8823 15.514 44.2118 13.9004C42.5413 12.2867 40.399 11.4814 37.7888 11.4814C36.5293 11.4814 35.2995 11.7166 34.0994 12.1885ZM6.20234 11.7095L3.87633 11.8423C3.53388 11.8423 3.09923 11.8062 2.57503 11.7317C2.30709 11.691 2.09598 11.6692 1.93792 11.6692C1.61994 11.6692 1.45624 11.767 1.45022 11.9623C1.44156 12.1174 1.54806 12.2039 1.77498 12.2201C2.60777 12.3112 3.12783 12.5878 3.3382 13.051C3.54856 13.5143 3.65204 14.6203 3.65204 16.372V23.9563C3.65204 25.6057 3.53238 26.7474 3.2953 27.38C3.05671 28.016 2.61266 28.3795 1.96201 28.4819C1.68617 28.5218 1.54806 28.6204 1.54806 28.7758C1.54806 28.9376 1.65832 29.0181 1.8747 29.0181C2.0241 29.0181 2.26231 28.997 2.5882 28.9575C2.83882 28.9244 3.20874 28.9071 3.70059 28.9071L4.67525 28.8932L5.56486 28.921L6.86503 28.9436L7.70384 28.997C8.01167 28.997 8.15806 28.8883 8.143 28.6772C8.1351 28.5285 8.00377 28.4552 7.75389 28.4552C7.52058 28.4552 7.17399 28.3938 6.71451 28.2681C6.05595 28.1014 5.68189 27.5121 5.58932 26.4998L5.55206 25.4518L5.56486 24.2374V13.7973L5.57728 13.4345C5.57728 13.0819 5.63937 12.8463 5.76506 12.7195C5.88924 12.5946 6.1188 12.5332 6.45033 12.5332C7.90743 12.5332 9.10976 12.946 10.0592 13.7736C11.006 14.6022 11.4817 15.6491 11.4817 16.9128C11.4817 18.0075 11.1215 18.8869 10.4017 19.5466C9.68176 20.2063 8.72328 20.5401 7.52471 20.5401C7.10098 20.5401 6.79316 20.5081 6.60161 20.4509C6.5201 20.4293 6.4364 20.4169 6.35211 20.414C6.21175 20.414 6.13046 20.4637 6.11503 20.5623C6.09772 20.6925 6.30771 20.8144 6.74687 20.9285C7.1834 21.044 7.66546 21.1004 8.19192 21.1004C9.30883 21.1004 10.3689 20.7505 11.3688 20.0494C12.7025 19.109 13.3708 17.8193 13.3708 16.1831C13.3708 14.834 12.8244 13.7397 11.7395 12.9009C10.6504 12.0636 9.2347 11.6432 7.49085 11.6432C7.15705 11.6432 6.72881 11.6658 6.20234 11.7095ZM92.4078 11.8201C92.1236 11.8201 91.9396 11.8803 91.8501 11.9992C91.7643 12.1211 91.7191 12.3725 91.7191 12.7545C91.7191 13.1451 91.657 13.6392 91.5321 14.2391C91.4297 14.7042 91.3815 15.0203 91.3815 15.1964C91.3815 15.4132 91.4568 15.5276 91.6062 15.5358C91.7579 15.5419 91.8689 15.3838 91.9464 15.0579C92.1108 14.3079 92.3475 13.7988 92.652 13.5274C92.9568 13.2546 93.4453 13.1188 94.1226 13.1188H97.4368C97.7522 13.1188 97.9562 13.1613 98.042 13.2463C98.1285 13.3287 98.1737 13.5192 98.1737 13.8221L98.1857 14.1499V26.566C98.1857 27.2652 98.0743 27.7514 97.8482 28.0239C97.622 28.2963 97.1911 28.4736 96.5491 28.5568C96.2729 28.5895 96.1352 28.67 96.1352 28.8017C96.1352 28.9809 96.2594 29.0701 96.5104 29.0701C96.5939 29.0701 96.8746 29.0445 97.3499 28.997C97.5934 28.9707 97.8903 28.9575 98.241 28.9575L99.2183 28.944L100.133 28.9575L101.261 28.997L101.874 29.0701C102.111 29.0701 102.227 28.9809 102.227 28.8017C102.227 28.6602 102.08 28.5684 101.79 28.518C100.739 28.3336 100.191 27.7552 100.15 26.7783L100.138 26.2868V14.0114C100.138 13.617 100.187 13.3713 100.282 13.2693C100.379 13.1699 100.61 13.1188 100.975 13.1188H104.491C105.194 13.1188 105.662 13.2091 105.904 13.3897C106.147 13.5703 106.321 13.9523 106.431 14.545C106.481 14.8126 106.58 14.9416 106.732 14.9349C106.914 14.9168 107.002 14.7836 106.995 14.536L106.918 13.9237C106.876 13.6994 106.856 13.3415 106.856 12.8535C106.856 12.3654 106.809 12.0681 106.71 11.9669C106.614 11.8668 106.338 11.8201 105.879 11.8201H92.4081H92.4078ZM80.8676 19.8932C80.7634 19.7901 80.7115 19.5402 80.7115 19.147V14.0505L80.6979 13.6388C80.6979 13.2095 80.7935 12.9167 80.9794 12.7534C81.1702 12.5897 81.51 12.5069 82.0019 12.5069C83.3239 12.5069 84.4095 12.8997 85.2634 13.6795C86.1146 14.4633 86.541 15.4613 86.541 16.6734C86.541 17.7181 86.2283 18.5437 85.6009 19.147C84.974 19.7479 84.1119 20.049 83.0183 20.049H81.6011C81.2172 20.049 80.9738 19.9982 80.8676 19.8932ZM80.7995 11.7189L78.8355 11.8062C78.3934 11.8062 78.0238 11.7945 77.7216 11.7678L76.8459 11.7189C76.5633 11.7189 76.4207 11.8047 76.4207 11.9759C76.4207 12.1227 76.5554 12.2205 76.8215 12.2679L77.4085 12.3567C78.3162 12.5069 78.7719 13.235 78.7719 14.5371L78.7983 15.8384V24.835C78.7983 26.2492 78.6929 27.1922 78.4837 27.6735C78.2767 28.1522 77.8379 28.4548 77.1722 28.579C76.9626 28.6226 76.858 28.7039 76.858 28.8258C76.858 28.997 76.9626 29.0825 77.1722 29.0825C77.296 29.0825 77.5207 29.0644 77.8458 29.0309L78.8728 28.9707L79.5238 28.9572L80.7235 28.9707L82.3123 29.0264L83.0499 29.0825C83.3415 29.0825 83.4778 28.9997 83.4631 28.839C83.4556 28.6813 83.3013 28.5895 83.0002 28.5568C82.2498 28.4819 81.6952 28.3009 81.3377 28.0167C81.0686 27.8056 80.9019 27.5712 80.8296 27.3081C80.76 27.0458 80.7235 26.5525 80.7235 25.8315L80.7115 25.3325V21.4162C80.7115 21.2035 80.7604 21.0737 80.8612 21.0124L81.1363 20.965H82.7993C83.2508 20.965 83.5767 21.1332 83.7758 21.4756L83.9504 21.7522L87.0652 26.5051C87.6835 27.4383 88.2901 28.1101 88.8847 28.5263C89.4826 28.9376 90.157 29.1434 90.9059 29.1434C91.3642 29.1434 91.7759 29.0908 92.1391 28.9914C92.5014 28.8883 92.6859 28.7754 92.6941 28.6467C92.7024 28.5368 92.6339 28.4774 92.4811 28.4683L92.0819 28.4442C91.1825 28.3878 90.1973 27.5749 89.1289 26.0117L88.73 25.4111L85.2784 20.3211C87.3369 19.2952 88.3672 17.8423 88.3672 15.9656C88.3672 14.5356 87.8795 13.4601 86.903 12.7409C85.9265 12.0173 84.4822 11.656 82.5626 11.656C81.9744 11.6589 81.3864 11.6797 80.7995 11.7185M107.631 11.9194C107.631 12.0681 107.752 12.1433 107.995 12.1433C108.427 12.1433 108.864 12.2675 109.306 12.514C109.748 12.7605 110.09 13.0785 110.333 13.4706L110.757 14.1608L114.249 19.7111C114.541 20.1713 114.724 20.5254 114.799 20.7745C114.873 21.0267 114.912 21.4173 114.912 21.9539V25.6858L114.897 26.2255C114.897 27.1192 114.805 27.7029 114.617 27.9738C114.432 28.2448 113.986 28.4322 113.284 28.5293C113.01 28.5707 112.874 28.673 112.874 28.8367C112.874 28.9771 112.968 29.0441 113.159 29.0441C113.236 29.0441 113.395 29.0253 113.635 28.988C113.846 28.9594 114.262 28.9459 114.879 28.9459L115.856 28.9207L116.846 28.9703C117.247 28.9967 117.552 29.0177 117.761 29.0441C118.104 29.0855 118.323 29.1069 118.412 29.1069C118.705 29.1069 118.852 29.008 118.852 28.8123C118.852 28.667 118.723 28.5786 118.463 28.5564C117.713 28.4815 117.26 28.3332 117.099 28.1172C116.942 27.8978 116.863 27.3081 116.863 26.338V21.1023C116.863 20.7237 117.021 20.3136 117.339 19.8627L117.638 19.4356L120.677 14.8999L121.491 13.6851C121.984 12.9923 122.6 12.5246 123.343 12.2807C123.552 12.2145 123.656 12.12 123.656 11.9906C123.656 11.8257 123.542 11.7535 123.318 11.7678L122.652 11.8329C122.419 11.8577 121.875 11.8668 121.021 11.8668C120.094 11.8668 119.509 11.851 119.266 11.8122C118.948 11.767 118.728 11.7437 118.602 11.7437C118.418 11.7437 118.324 11.8144 118.314 11.9567C118.304 12.0989 118.407 12.1938 118.612 12.245C119.663 12.4933 120.19 12.8997 120.19 13.4571C120.19 13.7709 119.899 14.3915 119.317 15.318L118.707 16.2907L116.898 19.0363L116.771 19.226C116.688 19.3423 116.601 19.3983 116.512 19.3983C116.435 19.3983 116.36 19.3419 116.285 19.2226L116.121 18.9742L113.492 14.8378L113.139 14.2357C112.777 13.6516 112.596 13.2527 112.596 13.0352C112.596 12.6326 112.876 12.3492 113.435 12.1829C113.626 12.1245 113.722 12.0357 113.722 11.913C113.722 11.7486 113.603 11.6692 113.36 11.6692C113.286 11.6692 113.066 11.688 112.699 11.7268C112.359 11.7629 111.577 11.781 110.353 11.781C109.761 11.781 109.196 11.7486 108.655 11.6857C108.444 11.6579 108.232 11.6435 108.019 11.6428C107.76 11.6428 107.631 11.7358 107.631 11.9198M60.7908 11.9612C60.7908 12.1174 60.9127 12.1942 61.1543 12.1942C61.9141 12.1942 62.424 12.4019 62.6859 12.8139C62.9478 13.226 63.0803 14.031 63.0803 15.2254V25.8138L63.0671 26.6274C63.0671 27.6284 62.7683 28.2154 62.1677 28.3795L61.6928 28.518C61.4761 28.5782 61.3673 28.6734 61.3673 28.8127C61.3673 28.9914 61.4986 29.0825 61.7654 29.0825C61.884 29.0825 62.1015 29.0524 62.4176 28.997C63.0178 28.8932 64.0478 28.8446 65.5072 28.8446C66.5496 28.8446 67.8682 28.921 69.4604 29.0701C69.8672 29.1013 70.1942 29.1186 70.4361 29.1186C71.5534 29.1186 72.4795 28.67 73.2126 27.7733C73.8222 27.0259 74.1255 26.3809 74.1255 25.8413C74.1255 25.6155 74.0484 25.5101 73.8952 25.515C73.8023 25.5233 73.7067 25.5993 73.613 25.7427C72.6809 27.2171 70.5776 27.9577 67.3048 27.9577C66.2726 27.9577 65.6283 27.8704 65.3762 27.6905C65.1203 27.5174 64.995 27.0741 64.995 26.364V21.7526L64.9818 21.3405C64.9818 21.0899 65.0507 20.9217 65.1888 20.8393C65.3269 20.7569 65.5978 20.714 66.0061 20.714H68.7645C69.4796 20.714 69.9868 20.8133 70.2871 21.0124C70.5874 21.2114 70.7873 21.5934 70.8855 22.1515L70.9604 22.5022C70.9957 22.6832 71.103 22.7754 71.2821 22.7754C71.442 22.7754 71.5229 22.6731 71.5229 22.4653C71.5229 22.3901 71.5135 22.2685 71.5004 22.1044C71.4481 21.6047 71.4251 21.0997 71.4251 20.5924C71.4251 19.929 71.4609 19.1936 71.5357 18.3861C71.5459 18.2619 71.55 18.1678 71.55 18.1113C71.55 17.8938 71.4688 17.7813 71.3058 17.7753C71.135 17.7655 71.0277 17.8641 70.9867 18.0737C70.8787 18.6243 70.7556 18.9742 70.6243 19.1225C70.49 19.2745 70.1968 19.3983 69.749 19.4875C69.2383 19.5891 68.547 19.6373 67.6725 19.6373H65.7454C65.3864 19.6373 65.1715 19.5986 65.0992 19.5184C65.03 19.439 64.995 19.2068 64.995 18.8203V13.7739C64.995 13.3321 65.0687 13.0431 65.2196 12.9129C65.369 12.785 65.7017 12.7191 66.218 12.7191H68.1786C69.4701 12.7191 70.3564 12.7805 70.8373 12.908C71.3212 13.033 71.6415 13.2821 71.7984 13.6584C71.8993 13.9004 71.9489 14.1563 71.9489 14.4201V14.7448C71.9489 15.0045 72.0291 15.1317 72.1913 15.1204C72.3365 15.1129 72.431 15.0489 72.4716 14.9285C72.5149 14.8062 72.5559 14.5047 72.6003 14.0238L72.6493 13.29C72.691 12.7413 72.7245 12.4083 72.7509 12.2931C72.7742 12.178 72.7885 12.0801 72.7885 12.0041C72.7885 11.7652 72.6493 11.6428 72.3753 11.6428C72.2662 11.6428 72.0998 11.6609 71.8748 11.6937C71.7657 11.7102 71.4654 11.7279 70.9735 11.7441L69.1977 11.8329C68.4131 11.8649 67.5137 11.8818 66.4946 11.8818C64.8211 11.8818 63.3851 11.8144 62.1907 11.6794C61.8418 11.6417 61.5611 11.6203 61.3522 11.6203C60.9797 11.6203 60.7908 11.732 60.7908 11.9612ZM3.72618 7.38445C3.6385 7.33553 3.59447 7.25801 3.59447 7.15302V0.462869C3.59447 0.329653 3.62457 0.231434 3.68403 0.168213C3.74349 0.104992 3.83983 0.073758 3.97342 0.073758H6.16132C6.80633 0.073758 7.37419 0.228048 7.86528 0.536627C8.35637 0.845206 8.60173 1.43075 8.60173 2.29327C8.60173 2.89651 8.45986 3.36577 8.17574 3.70258C7.89162 4.03938 7.57251 4.26554 7.21839 4.38107C6.86428 4.4966 6.54704 4.55493 6.26631 4.55493H4.97254V7.15302C4.97254 7.35623 4.78664 7.45784 4.41521 7.45784H4.15217C3.95573 7.45784 3.81348 7.43337 3.72618 7.38445ZM6.15078 3.36615C6.42437 3.36615 6.66634 3.28712 6.8767 3.12907C7.08706 2.97102 7.19205 2.69292 7.19205 2.29327C7.19205 1.90755 7.08292 1.63735 6.86616 1.48306C6.6494 1.32877 6.39276 1.252 6.0981 1.252H4.97254V3.36615H6.15041H6.15078ZM9.03299 7.15302V3.70258C9.03299 3.23293 9.01192 2.88936 8.96977 2.67185L8.90655 2.2722C8.90655 2.17398 9.02245 2.09834 9.25389 2.04603C9.48532 1.99372 9.69192 1.96701 9.87443 1.96701C9.98658 1.96701 10.0671 2.01593 10.1164 2.11414C10.1657 2.21236 10.2022 2.31585 10.2267 2.42461L10.2741 2.65077C10.5966 2.12468 10.9857 1.86201 11.4418 1.86201C11.6589 1.86201 11.8151 1.91282 11.9099 2.01442C12.0048 2.11603 12.0518 2.23381 12.0518 2.36665C12.0518 2.50702 12.0236 2.67185 11.9679 2.86113C11.9122 3.05042 11.8414 3.14525 11.7571 3.14525C11.7221 3.14525 11.6537 3.12945 11.5521 3.09784C11.4504 3.06622 11.347 3.05042 11.242 3.05042C11.0384 3.05042 10.8562 3.11703 10.6948 3.25024C10.5334 3.38346 10.4216 3.50614 10.3584 3.61866V7.15302C10.3584 7.35623 10.1691 7.45784 9.79014 7.45784H9.59069C9.21851 7.45784 9.03299 7.35623 9.03299 7.15302ZM12.5252 6.78498C12.0973 6.30104 11.8836 5.60335 11.8836 4.69153C11.8836 3.77295 12.0973 3.07149 12.5252 2.58793C12.9531 2.10436 13.577 1.86164 14.3974 1.86164C15.211 1.86164 15.8296 2.10398 16.2541 2.58793C16.6786 3.07187 16.8901 3.77295 16.8901 4.69153C16.8901 5.61012 16.6782 6.30969 16.2541 6.79025C15.83 7.27081 15.211 7.51052 14.3974 7.51052C13.577 7.51052 12.9527 7.26855 12.5252 6.78498ZM15.2546 6.01165C15.4405 5.72076 15.5331 5.27708 15.5331 4.681C15.5331 4.09206 15.4405 3.65177 15.2546 3.36088C15.0687 3.06999 14.7797 2.92435 14.3868 2.92435C13.994 2.92435 13.7035 3.06999 13.5138 3.36088C13.3241 3.65177 13.23 4.09206 13.23 4.681C13.23 5.27708 13.3245 5.72076 13.5138 6.01165C13.7031 6.30254 13.9943 6.44818 14.3868 6.44818C14.7793 6.44818 15.0687 6.30254 15.2546 6.01165ZM17.569 9.54075C17.4813 9.49183 17.4373 9.4143 17.4373 9.30931V3.70295C17.4373 3.23331 17.4166 2.88973 17.3744 2.67222L17.3112 2.27257C17.3112 2.17436 17.4271 2.09872 17.6585 2.04641C17.89 1.9941 18.0932 1.96738 18.2682 1.96738C18.3875 1.96738 18.4714 2.0163 18.5207 2.11452C18.57 2.21274 18.6065 2.31623 18.6313 2.42498L18.6787 2.65115C18.8537 2.40579 19.0693 2.21312 19.3256 2.07275C19.5819 1.93238 19.8637 1.86201 20.1723 1.86201C20.572 1.86201 20.9227 1.97641 21.2241 2.20408C21.5256 2.43176 21.7585 2.7599 21.9241 3.18777C22.0897 3.61565 22.1709 4.11728 22.1709 4.69191C22.1709 5.56873 21.9764 6.25739 21.5869 6.75864C21.1974 7.25989 20.663 7.51127 19.983 7.51127C19.5202 7.51127 19.11 7.37768 18.7525 7.11125V9.30969C18.7525 9.5129 18.5662 9.6145 18.1948 9.6145H17.995C17.7985 9.6145 17.6563 9.59004 17.5686 9.54112L17.569 9.54075ZM20.8139 4.71261C20.8139 4.1376 20.7297 3.70107 20.5618 3.40303C20.394 3.10499 20.1441 2.95596 19.8148 2.95596C19.6112 2.95596 19.4201 3.01542 19.2413 3.13471C19.0626 3.25401 18.8996 3.41507 18.7521 3.61866V6.14299C19.0255 6.33714 19.3531 6.44024 19.6884 6.43764C20.4388 6.43764 20.8139 5.86263 20.8139 4.71261ZM23.2965 6.78987C22.8547 6.30969 22.6338 5.62066 22.6338 4.72315C22.6338 3.75526 22.8528 3.0365 23.2912 2.56685C23.7296 2.09721 24.3483 1.86201 25.1476 1.86201C25.9051 1.86201 26.4677 2.10737 26.8361 2.59809C27.2046 3.0888 27.3882 3.75187 27.3882 4.58617C27.3882 4.66369 27.3253 4.77432 27.1989 4.91732C27.0725 5.06032 26.978 5.13333 26.9148 5.13333H24.0119C24.0469 5.5962 24.1748 5.93112 24.3957 6.13809C24.6166 6.34507 24.9376 6.44818 25.3583 6.44818C25.7369 6.44818 26.1223 6.35034 26.5151 6.15352C26.6273 6.1046 26.6977 6.08014 26.7259 6.08014C26.8166 6.08014 26.9204 6.17309 27.036 6.35862C27.1515 6.54414 27.2094 6.68676 27.2094 6.78498C27.2094 6.9182 27.1078 7.04088 26.9046 7.15302C26.7014 7.26516 26.4504 7.35247 26.1524 7.41606C25.8543 7.47966 25.5755 7.51052 25.3162 7.51052C24.4115 7.51052 23.7383 7.27043 23.2965 6.79025V6.78987ZM26.0737 4.19705C26.0737 3.79741 25.9947 3.48544 25.8366 3.26078C25.6786 3.03612 25.4456 2.92435 25.1374 2.92435C24.4853 2.92435 24.1101 3.34884 24.0119 4.19705H26.0737ZM27.9354 7.15302V3.70258C27.9354 3.23293 27.9143 2.88936 27.8721 2.67185L27.8089 2.2722C27.8089 2.17398 27.9248 2.09834 28.1563 2.04603C28.3877 1.99372 28.5943 1.96701 28.7768 1.96701C28.8886 1.96701 28.9695 2.01593 29.0188 2.11414C29.0681 2.21236 29.1046 2.31585 29.129 2.42461L29.1764 2.65077C29.499 2.12468 29.8881 1.86201 30.3442 1.86201C30.5613 1.86201 30.7175 1.91282 30.8123 2.01442C30.9071 2.11603 30.9542 2.23381 30.9542 2.36665C30.9542 2.50702 30.9259 2.67185 30.8699 2.86113C30.8138 3.05042 30.7438 3.14525 30.6595 3.14525C30.6245 3.14525 30.556 3.12945 30.4544 3.09784C30.3528 3.06622 30.2493 3.05042 30.1443 3.05042C29.9407 3.05042 29.7582 3.11703 29.5972 3.25024C29.4361 3.38346 29.3236 3.50614 29.2607 3.61866V7.15302C29.2607 7.35623 29.0711 7.45784 28.6925 7.45784H28.4927C28.1209 7.45784 27.9354 7.35623 27.9354 7.15302ZM32.19 7.12141C31.9202 6.86175 31.7851 6.45533 31.7851 5.90101V2.99811H31.501C31.4031 2.99811 31.3309 2.96311 31.2857 2.89274C31.2405 2.82237 31.2172 2.70684 31.2172 2.54578V2.38773C31.2172 2.22666 31.2398 2.11076 31.2857 2.04076C31.3316 1.97077 31.4027 1.93539 31.501 1.93539H31.7851L31.9221 0.904288C31.9567 0.701077 32.1181 0.599472 32.406 0.599472H32.6581C32.9596 0.599472 33.1105 0.701077 33.1105 0.904288V1.93539H33.7521C33.8503 1.93539 33.9222 1.97077 33.9681 2.04076C34.014 2.11076 34.0362 2.22666 34.0362 2.38773V2.54578C34.0362 2.70684 34.0136 2.82275 33.9681 2.89274C33.9225 2.96274 33.8503 2.99811 33.7521 2.99811H33.1105V5.88032C33.1105 6.09068 33.1473 6.23782 33.2211 6.32174C33.2949 6.40565 33.4051 6.44818 33.5523 6.44818C33.6223 6.44818 33.6892 6.44141 33.7521 6.42711C33.8149 6.41281 33.8642 6.40603 33.8996 6.40603C33.9835 6.40603 34.0539 6.49559 34.11 6.67435C34.166 6.8531 34.1939 6.98443 34.1939 7.06872C34.1939 7.36338 33.8853 7.51052 33.2681 7.51052C32.8196 7.51052 32.4602 7.38069 32.19 7.12141ZM39.2218 2.12468C39.2218 2.16683 39.2117 2.22629 39.1906 2.30381L36.6764 9.39361C36.62 9.54037 36.4345 9.6145 36.1187 9.6145H35.9505C35.7752 9.6145 35.6419 9.59494 35.5509 9.55655C35.4598 9.51817 35.4143 9.46699 35.4143 9.40377C35.4143 9.362 35.4316 9.30216 35.467 9.22502L36.203 7.3107L34.4253 2.30343C34.4182 2.28236 34.411 2.25602 34.4042 2.22441C34.3975 2.19279 34.3937 2.16006 34.3937 2.12468C34.3937 1.98469 34.5867 1.91432 34.9725 1.91432H35.2144C35.523 1.91432 35.7018 1.98093 35.7507 2.11414L36.5293 4.37581C36.6061 4.62154 36.708 5.02119 36.8341 5.57513H36.8657L36.9606 5.19617L37.1814 4.37581L37.9491 2.11414C37.9981 1.98093 38.1772 1.9147 38.4858 1.9147H38.6645C39.0363 1.9147 39.2218 1.98469 39.2218 2.12468ZM45.2805 3.53963C45.3438 3.59946 45.3754 3.6958 45.3754 3.82902V6.71122C45.3754 7.01265 45.1262 7.22113 44.6287 7.33704C44.1313 7.45294 43.5732 7.51052 42.956 7.51052C41.8199 7.51052 40.9713 7.2057 40.4106 6.59532C39.8499 5.98493 39.5688 5.04226 39.5688 3.7658C39.5688 1.25539 40.7294 0 43.0509 0C43.3734 0 43.7045 0.0316106 44.0447 0.0948317C44.3849 0.158053 44.6656 0.243853 44.8865 0.352232C45.1074 0.460611 45.2177 0.578398 45.2177 0.70484C45.2177 0.789135 45.1842 0.899396 45.118 1.036C45.0517 1.1726 44.9723 1.29378 44.8809 1.39914C44.7894 1.50451 44.7093 1.55682 44.6393 1.55682C44.6182 1.55682 44.532 1.52182 44.3815 1.45145C44.231 1.38108 44.0413 1.31861 43.8133 1.26254C43.5852 1.20647 43.3241 1.17825 43.0298 1.17825C42.3212 1.17825 41.8041 1.39237 41.4782 1.81987C41.1523 2.24736 40.989 2.88597 40.989 3.73419C40.989 5.46637 41.6517 6.33265 42.9771 6.33265C43.3346 6.33265 43.6714 6.30104 43.9868 6.23782V4.62831H42.956C42.8578 4.62831 42.7859 4.59332 42.7404 4.52294C42.6949 4.45257 42.6719 4.33742 42.6719 4.17598V3.90278C42.6719 3.74134 42.6945 3.62581 42.7404 3.55544C42.7863 3.48506 42.8578 3.45007 42.956 3.45007H44.9862C45.1195 3.45007 45.2173 3.48017 45.2805 3.53963ZM46.1223 5.80656V2.21951C46.1223 2.11414 46.166 2.03738 46.2541 1.98808C46.3421 1.93878 46.4836 1.91432 46.6797 1.91432H46.8795C47.2513 1.91432 47.4372 2.01593 47.4372 2.21951V5.62743C47.4372 6.14675 47.6999 6.40641 48.226 6.40641C48.4292 6.40641 48.6203 6.34281 48.7991 6.21674C48.9778 6.09068 49.1235 5.93639 49.2356 5.75388V2.21951C49.2356 2.0163 49.4215 1.9147 49.7933 1.9147H50.0037C50.3755 1.9147 50.5614 2.0163 50.5614 2.21951V5.69103C50.5614 6.16782 50.5821 6.51667 50.6242 6.73719L50.6874 7.14248C50.6874 7.24032 50.5715 7.31596 50.3401 7.36827C50.1087 7.42058 49.9021 7.4473 49.7196 7.4473C49.6074 7.4473 49.5269 7.3965 49.4776 7.29489C49.4283 7.19328 49.3918 7.08302 49.3673 6.96373L49.3199 6.72138C49.1306 6.95282 48.8939 7.14248 48.6098 7.28962C48.3257 7.43676 48.0295 7.51052 47.7209 7.51052C46.6548 7.51052 46.1223 6.94228 46.1223 5.80656ZM51.3712 7.15302V3.70258C51.3712 3.23293 51.3501 2.88936 51.308 2.67185L51.2448 2.2722C51.2448 2.17398 51.3607 2.09834 51.5921 2.04603C51.8235 1.99372 52.0301 1.96701 52.213 1.96701C52.3248 1.96701 52.4057 2.01593 52.4546 2.11414C52.5036 2.21236 52.5404 2.31585 52.5653 2.42461L52.6123 2.65077C52.9352 2.12468 53.3243 1.86201 53.78 1.86201C53.9971 1.86201 54.1533 1.91282 54.2481 2.01442C54.343 2.11603 54.3904 2.23381 54.3904 2.36665C54.3904 2.50702 54.3622 2.67185 54.3061 2.86113C54.25 3.05042 54.1797 3.14525 54.0954 3.14525C54.0604 3.14525 53.9919 3.12945 53.8907 3.09784C53.7894 3.06622 53.6856 3.05042 53.5802 3.05042C53.377 3.05042 53.1945 3.11703 53.0334 3.25024C52.8723 3.38346 52.7598 3.50614 52.6966 3.61866V7.15302C52.6966 7.35623 52.5073 7.45784 52.1284 7.45784H51.9289C51.5571 7.45784 51.3712 7.35623 51.3712 7.15302ZM54.7268 5.80656V2.21951C54.7268 2.11414 54.7705 2.03738 54.8582 1.98808C54.9458 1.93878 55.0877 1.91432 55.2841 1.91432H55.484C55.8558 1.91432 56.0417 2.01593 56.0417 2.21951V5.62743C56.0417 6.14675 56.3043 6.40641 56.8304 6.40641C57.0336 6.40641 57.2248 6.34281 57.4036 6.21674C57.5823 6.09068 57.7279 5.93639 57.8401 5.75388V2.21951C57.8401 2.0163 58.026 1.9147 58.3978 1.9147H58.6081C58.9799 1.9147 59.1659 2.0163 59.1659 2.21951V5.69103C59.1659 6.16782 59.1865 6.51667 59.2287 6.73719L59.2919 7.14248C59.2919 7.24032 59.176 7.31596 58.9446 7.36827C58.7131 7.42058 58.5062 7.4473 58.324 7.4473C58.2119 7.4473 58.131 7.3965 58.0821 7.29489C58.0331 7.19328 57.9963 7.08302 57.9718 6.96373L57.9244 6.72138C57.7351 6.95282 57.4984 7.14248 57.2143 7.28962C56.9302 7.43676 56.634 7.51052 56.3254 7.51052C55.2593 7.51052 54.7264 6.94228 54.7264 5.80656H54.7268Z" fill="#2C2C2C"/>
</g>
<defs>
<clipPath id="clip0_31275_30424">
<rect width="124.6" height="56" fill="white" transform="translate(0.146606)"/>
</clipPath>
</defs>
</svg>
